<?xml version="1.0" standalone="no"?>
<!DOCTYPE svg PUBLIC "-//W3C//DTD SVG 1.1//EN" "http://www.w3.org/Graphics/SVG/1.1/DTD/svg11.dtd" >
<svg>
<metadata>
Created by FontForge 20090914 at Wed Feb  7 14:39:40 2018
 By www-data
Copyright &#194;&#169; 2015 by Reza Bakhtiarifard / Bakh. All rights reserved.
</metadata>
<defs>
<font id="YekanBakh-Medium" horiz-adv-x="0" >
  <font-face 
    font-family="Yekan Bakh Medium"
    font-weight="500"
    font-stretch="normal"
    units-per-em="1000"
    panose-1="1 0 5 4 0 0 0 2 0 4"
    ascent="800"
    descent="-200"
    bbox="-177.001 -490.001 1329 925.998"
    underline-thickness="25"
    underline-position="-106"
    unicode-range="U+000A-U+FFFC"
  />
<missing-glyph horiz-adv-x="540" 
d="M462 0h-396v610h396v-610zM145 522v-434h238v434h-238z" />
    <glyph glyph-name="allah" unicode="&#x627;&#xfedf;&#xfee0;&#xfeea;" horiz-adv-x="1212" arabic-form="isolated" 
d="M318 465l78.0039 -0.00195312v-290c0 -28 4.66699 -49.5 14 -64.5s29 -22.5 59 -22.5h73c24 0 42 5.5 54 16.5s18 26.5 18 46.5v245h81v-223c0 -28.667 7.16699 -50 21.5 -64s35.166 -21 62.499 -21h26c23.333 0 41.166 5.5 53.499 16.5s18.5 26.5 18.5 46.5v336h82v-345
c0 -23.333 -3.83301 -43.833 -11.5 -61.5s-18 -32.5 -31 -44.5s-28.167 -21 -45.5 -27s-36 -9 -56 -9h-39c-23.333 0 -45.833 4.33301 -67.5 13s-39.834 25.667 -54.501 51c-15.333 -25.333 -33.166 -42.333 -53.499 -51s-40.833 -13 -61.5 -13h-74
c-32 0 -58.667 6.33301 -80 19s-37 35 -47 67c-8 -10 -17.667 -18.167 -29 -24.5s-23.333 -11.333 -36 -15s-25.334 -6.16699 -38.001 -7.5s-24.334 -2 -35.001 -2c-50 0 -87.833 13 -113.5 39s-38.5 66.667 -38.5 122c0 24.667 3.5 48.834 10.5 72.501
s17.5 44.834 31.5 63.501s31.5 33.667 52.5 45s45.833 17 74.5 17h101v69zM222.004 314.998c-32 0 -55.667 -10 -71 -30s-23 -46 -23 -78s7.33301 -54 22 -66s37 -18 67 -18c31.333 0 56 6.33301 74 19s27 28.667 27 48v125h-96zM621.004 925.998h53v-174h-53v174z
M674.004 680.998l-0.000976562 -129h34c15.333 0 28 3.83301 38 11.5s15 22.167 15 43.5v74h52v-63c0 -26 -3.33301 -46.667 -10 -62s-15 -27.333 -25 -36s-20.5 -14.334 -31.5 -17.001s-20.833 -4 -29.5 -4h-36c-6.66699 0 -12.5 1.83301 -17.5 5.5
s-10.167 7.83398 -15.5 12.501c-4.66699 -4.66699 -9.66699 -8.83398 -15 -12.501s-11.333 -5.5 -18 -5.5h-40c-8.66699 0 -18.334 1.33301 -29.001 4s-20.667 8.33398 -30 17.001s-17.166 20.667 -23.499 36s-9.5 36 -9.5 62v63h53v-74
c0 -21.333 4.83301 -35.833 14.5 -43.5s21.834 -11.5 36.501 -11.5h34v129h53zM1070 609.998h83v-610h-83v610z" />
    <glyph glyph-name="la.aa" unicode="&#xfedf;&#xfe82;" horiz-adv-x="473" arabic-form="isolated" 
d="M59 457h83v-369h119c22.667 0 40 5.5 52 16.5s18 26.5 18 46.5v459h83v-468c0 -23.333 -3.83301 -43.833 -11.5 -61.5s-18 -32.5 -31 -44.5s-28.333 -21 -46 -27s-36.5 -9 -56.5 -9h-210v457zM55 571c-13.333 0 -23.833 -1.16895 -31.5 -3.50195
s-14.167 -10.166 -19.5 -23.499l-21 -45l-53 24l29 62c5.33301 12.667 10.833 23 16.5 31s12 14.333 19 19s15 7.83398 24 9.50098s19.833 2.5 32.5 2.5h193l-4 -76h-185z" />
    <glyph glyph-name="la.aa.fina" unicode="&#xfee0;&#xfe82;" horiz-adv-x="508" arabic-form="final" 
d="M59 0v457h83v-369h112c51.333 0 77 24.333 77 73v449h83v-449c0 -13.333 2.16699 -24.666 6.5 -33.999s10.166 -16.833 17.499 -22.5s15.833 -9.83398 25.5 -12.501s19.834 -4 30.501 -4h14c8.66699 0 14.5 -3.5 17.5 -10.5s4.5 -17.5 4.5 -31.5
c0 -16 -1.5 -27.667 -4.5 -35s-8.83301 -11 -17.5 -11h-16c-25.333 -0 -48.5 4.33301 -69.5 13s-38.5 25.667 -52.5 51c-15.333 -25.333 -33 -42.333 -53 -51s-41 -13 -63 -13h-195zM55 571c-13.333 0 -23.833 -1.16895 -31.5 -3.50195s-14.167 -10.166 -19.5 -23.499
l-21 -45l-53 24l29 62c5.33301 12.667 10.833 23 16.5 31s12 14.333 19 19s15 7.83398 24 9.50098s19.833 2.5 32.5 2.5h193l-4 -76h-185z" />
    <glyph glyph-name="la.thmz" unicode="&#xfedf;&#xfe84;" horiz-adv-x="473" arabic-form="isolated" 
d="M59 457h83v-369h119c22.667 0 40 5.5 52 16.5s18 26.5 18 46.5v459h83v-468c0 -23.333 -3.83301 -43.833 -11.5 -61.5s-18 -32.5 -31 -44.5s-28.333 -21 -46 -27s-36.5 -9 -56.5 -9h-210v457zM210 597l-186 -94.001l-24 47l66 30c-18.667 7.33301 -32 18.666 -40 33.999
s-12 31 -12 47c0 28 8.83301 50.5 26.5 67.5s40.5 25.5 68.5 25.5h47l-6 -51h-32c-17.333 0 -30.333 -4.66699 -39 -14s-13 -20.666 -13 -33.999s4.66699 -24.166 14 -32.499s20.333 -12.5 33 -12.5c8 0 18.5 3.16699 31.5 9.5l45.5 22.5z" />
    <glyph glyph-name="la.thmz.fina" unicode="&#xfee0;&#xfe84;" horiz-adv-x="508" arabic-form="final" 
d="M59 0v457h83v-369h112c51.333 0 77 24.333 77 73v449h83v-449c0 -13.333 2.16699 -24.666 6.5 -33.999s10.166 -16.833 17.499 -22.5s15.833 -9.83398 25.5 -12.501s19.834 -4 30.501 -4h14c8.66699 0 14.5 -3.5 17.5 -10.5s4.5 -17.5 4.5 -31.5
c0 -16 -1.5 -27.667 -4.5 -35s-8.83301 -11 -17.5 -11h-16c-25.333 -0 -48.5 4.33301 -69.5 13s-38.5 25.667 -52.5 51c-15.333 -25.333 -33 -42.333 -53 -51s-41 -13 -63 -13h-195zM210 597l-186 -94.001l-24 47l66 30c-18.667 7.33301 -32 18.666 -40 33.999
s-12 31 -12 47c0 28 8.83301 50.5 26.5 67.5s40.5 25.5 68.5 25.5h47l-6 -51h-32c-17.333 0 -30.333 -4.66699 -39 -14s-13 -20.666 -13 -33.999s4.66699 -24.166 14 -32.499s20.333 -12.5 33 -12.5c8 0 18.5 3.16699 31.5 9.5l45.5 22.5z" />
    <glyph glyph-name="la.bhmz" unicode="&#xfedf;&#xfe88;" horiz-adv-x="473" arabic-form="isolated" 
d="M59 610h83v-522h119c22.667 0 40 5.5 52 16.5s18 26.5 18 46.5v459h83v-468c0 -23.333 -3.83301 -43.833 -11.5 -61.5s-18 -32.5 -31 -44.5s-28.333 -21 -46 -27s-36.5 -9 -56.5 -9h-210v610zM236 -261l-186 -94.001l-24 47l66 30c-18.667 7.33301 -32 18.666 -40 33.999
s-12 31 -12 47c0 28 8.83301 50.5 26.5 67.5s40.5 25.5 68.5 25.5h47l-6 -51h-32c-17.333 0 -30.333 -4.66699 -39 -14s-13 -20.666 -13 -33.999s4.66699 -24.166 14 -32.499s20.333 -12.5 33 -12.5c8 0 18.5 3.16699 31.5 9.5l45.5 22.5z" />
    <glyph glyph-name="la.bhmz.fina" unicode="&#xfee0;&#xfe88;" horiz-adv-x="508" arabic-form="final" 
d="M59 0v610h83v-522h112c51.333 0 77 24.333 77 73v449h83v-449c0 -13.333 2.16699 -24.666 6.5 -33.999s10.166 -16.833 17.499 -22.5s15.833 -9.83398 25.5 -12.501s19.834 -4 30.501 -4h14c8.66699 0 14.5 -3.5 17.5 -10.5s4.5 -17.5 4.5 -31.5
c0 -16 -1.5 -27.667 -4.5 -35s-8.83301 -11 -17.5 -11h-16c-25.333 -0 -48.5 4.33301 -69.5 13s-38.5 25.667 -52.5 51c-15.333 -25.333 -33 -42.333 -53 -51s-41 -13 -63 -13h-195zM236 -261l-186 -94.001l-24 47l66 30c-18.667 7.33301 -32 18.666 -40 33.999
s-12 31 -12 47c0 28 8.83301 50.5 26.5 67.5s40.5 25.5 68.5 25.5h47l-6 -51h-32c-17.333 0 -30.333 -4.66699 -39 -14s-13 -20.666 -13 -33.999s4.66699 -24.166 14 -32.499s20.333 -12.5 33 -12.5c8 0 18.5 3.16699 31.5 9.5l45.5 22.5z" />
    <glyph glyph-name="la" unicode="&#xfedf;&#xfe8e;" horiz-adv-x="473" arabic-form="isolated" 
d="M59 610h83v-522h119c22.667 0 40 5.5 52 16.5s18 26.5 18 46.5v459h83v-468c0 -23.333 -3.83301 -43.833 -11.5 -61.5s-18 -32.5 -31 -44.5s-28.333 -21 -46 -27s-36.5 -9 -56.5 -9h-210v610z" />
    <glyph glyph-name="la.fina" unicode="&#xfee0;&#xfe8e;" horiz-adv-x="508" arabic-form="final" 
d="M59 0v610h83v-522h112c51.333 0 77 24.333 77 73v449h83v-449c0 -13.333 2.16699 -24.666 6.5 -33.999s10.166 -16.833 17.499 -22.5s15.833 -9.83398 25.5 -12.501s19.834 -4 30.501 -4h14c8.66699 0 14.5 -3.5 17.5 -10.5s4.5 -17.5 4.5 -31.5
c0 -16 -1.5 -27.667 -4.5 -35s-8.83301 -11 -17.5 -11h-16c-25.333 -0 -48.5 4.33301 -69.5 13s-38.5 25.667 -52.5 51c-15.333 -25.333 -33 -42.333 -53 -51s-41 -13 -63 -13h-195z" />
    <glyph glyph-name="la.tvasla" unicode="&#xfedf;&#xfb51;" horiz-adv-x="473" 
d="M59 457h83v-369h119c22.667 0 40 5.5 52 16.5s18 26.5 18 46.5v459h83v-468c0 -23.333 -3.83301 -43.833 -11.5 -61.5s-18 -32.5 -31 -44.5s-28.333 -21 -46 -27s-36.5 -9 -56.5 -9h-210v457zM28 590c25.333 50.667 49.501 86.333 72.501 107s46.833 31 71.5 31
c22 0 41 -8.5 57 -25.5s24 -38.833 24 -65.5c0 -10 -1.83301 -20.833 -5.5 -32.5s-9.66699 -22.5 -18 -32.5s-19.333 -18.167 -33 -24.5s-30.834 -9.5 -51.501 -9.5h-132l-28 25v94l43 5v-72zM149.001 587.999c17.333 0 31.5 3.83203 42.5 11.499s16.5 19.834 16.5 36.501
c0 11.333 -3.83301 21.333 -11.5 30s-18.167 13 -31.5 13c-15.333 0 -30.5 -8 -45.5 -24s-30.833 -38.333 -47.5 -67h77z" />
    <glyph glyph-name="la.tvasla.fina" unicode="&#xfee0;&#xfb51;" horiz-adv-x="508" 
d="M59 0v457h83v-369h112c51.333 0 77 24.333 77 73v449h83v-449c0 -13.333 2.16699 -24.666 6.5 -33.999s10.166 -16.833 17.499 -22.5s15.833 -9.83398 25.5 -12.501s19.834 -4 30.501 -4h14c8.66699 0 14.5 -3.5 17.5 -10.5s4.5 -17.5 4.5 -31.5
c0 -16 -1.5 -27.667 -4.5 -35s-8.83301 -11 -17.5 -11h-16c-25.333 -0 -48.5 4.33301 -69.5 13s-38.5 25.667 -52.5 51c-15.333 -25.333 -33 -42.333 -53 -51s-41 -13 -63 -13h-195zM28 590c25.333 50.667 49.501 86.333 72.501 107s46.833 31 71.5 31
c22 0 41 -8.5 57 -25.5s24 -38.833 24 -65.5c0 -10 -1.83301 -20.833 -5.5 -32.5s-9.66699 -22.5 -18 -32.5s-19.333 -18.167 -33 -24.5s-30.834 -9.5 -51.501 -9.5h-132l-28 25v94l43 5v-72zM149.001 587.999c17.333 0 31.5 3.83203 42.5 11.499s16.5 19.834 16.5 36.501
c0 11.333 -3.83301 21.333 -11.5 30s-18.167 13 -31.5 13c-15.333 0 -30.5 -8 -45.5 -24s-30.833 -38.333 -47.5 -67h77z" />
    <glyph glyph-name="lellah" unicode="&#xfedf;&#x650;&#xfee0;&#x654;&#xfeea;" horiz-adv-x="1013" 
d="M318 465l78.0039 -0.00195312v-290c0 -28 4.66699 -49.5 14 -64.5s29 -22.5 59 -22.5h73c24 0 42 5.5 54 16.5s18 26.5 18 46.5v245h81v-223c0 -28.667 7.16699 -50 21.5 -64s35.166 -21 62.499 -21h26c23.333 0 41.166 5.5 53.499 16.5s18.5 26.5 18.5 46.5v336h82v-345
c0 -23.333 -3.83301 -43.833 -11.5 -61.5s-18 -32.5 -31 -44.5s-28.167 -21 -45.5 -27s-36 -9 -56 -9h-39c-23.333 0 -45.833 4.33301 -67.5 13s-39.834 25.667 -54.501 51c-15.333 -25.333 -33.166 -42.333 -53.499 -51s-40.833 -13 -61.5 -13h-74
c-32 0 -58.667 6.33301 -80 19s-37 35 -47 67c-8 -10 -17.667 -18.167 -29 -24.5s-23.333 -11.333 -36 -15s-25.334 -6.16699 -38.001 -7.5s-24.334 -2 -35.001 -2c-50 0 -87.833 13 -113.5 39s-38.5 66.667 -38.5 122c0 24.667 3.5 48.834 10.5 72.501
s17.5 44.834 31.5 63.501s31.5 33.667 52.5 45s45.833 17 74.5 17h101v69zM222.004 314.998c-32 0 -55.667 -10 -71 -30s-23 -46 -23 -78s7.33301 -54 22 -66s37 -18 67 -18c31.333 0 56 6.33301 74 19s27 28.667 27 48v125h-96zM621.004 925.998h53v-174h-53v174z
M674.004 680.998l-0.000976562 -129h34c15.333 0 28 3.83301 38 11.5s15 22.167 15 43.5v74h52v-63c0 -26 -3.33301 -46.667 -10 -62s-15 -27.333 -25 -36s-20.5 -14.334 -31.5 -17.001s-20.833 -4 -29.5 -4h-36c-6.66699 0 -12.5 1.83301 -17.5 5.5
s-10.167 7.83398 -15.5 12.501c-4.66699 -4.66699 -9.66699 -8.83398 -15 -12.501s-11.333 -5.5 -18 -5.5h-40c-8.66699 0 -18.334 1.33301 -29.001 4s-20.667 8.33398 -30 17.001s-17.166 20.667 -23.499 36s-9.5 36 -9.5 62v63h53v-74
c0 -21.333 4.83301 -35.833 14.5 -43.5s21.834 -11.5 36.501 -11.5h34v129h53z" />
    <glyph glyph-name="hmz" unicode="&#x621;" horiz-adv-x="438" arabic-form="isolated" 
d="M55 69l101.002 51.002c-33.333 10.667 -58 28 -74 52s-24 50.667 -24 80c0 23.333 4.16699 45 12.5 65s19.666 37.167 33.999 51.5s31.166 25.666 50.499 33.999s39.666 12.5 60.999 12.5c16.667 0 32 -2 46 -6s29 -10.667 45 -20l-27 -77
c-8 3.33301 -17.5 6.66602 -28.5 9.99902s-21.833 5 -32.5 5c-25.333 0 -45.666 -7.33301 -60.999 -22s-23 -33.667 -23 -57c0 -21.333 7.33301 -39.166 22 -53.499s35.667 -21.5 63 -21.5c16.667 0 35 4.16699 55 12.5s48 22.166 84 41.499l36 -75l-304 -158z" />
    <glyph glyph-name="alef.aa" unicode="&#x622;" horiz-adv-x="201" arabic-form="isolated" 
d="M59 457h83v-457h-83v457zM50 563c-13.333 0 -23.833 -1.16895 -31.5 -3.50195s-14.167 -10.166 -19.5 -23.499l-21 -45l-53 24l29 62c5.33301 12.667 10.833 23 16.5 31s12 14.333 19 19s15 7.83398 24 9.50098s19.833 2.5 32.5 2.5h193l-4 -76h-185z" />
    <glyph glyph-name="alef.thmz" unicode="&#x623;" horiz-adv-x="201" arabic-form="isolated" 
d="M59 457h83v-457h-83v457zM203 597l-186 -94.001l-24 47l66 30c-18.667 7.33301 -32 18.666 -40 33.999s-12 31 -12 47c0 28 8.83301 50.5 26.5 67.5s40.5 25.5 68.5 25.5h47l-6 -51h-32c-17.333 0 -30.333 -4.66699 -39 -14s-13 -20.666 -13 -33.999
s4.66699 -24.166 14 -32.499s20.333 -12.5 33 -12.5c8 0 18.5 3.16699 31.5 9.5l45.5 22.5z" />
    <glyph glyph-name="vav.thmz" unicode="&#x624;" horiz-adv-x="442" arabic-form="isolated" 
d="M145 -154c27.333 0 51.334 4.00195 72.001 12.002s37.834 19 51.501 33s24.167 30.333 31.5 49s11.666 38.667 12.999 60h-85c-34.667 0 -63 3.66699 -85 11s-39.333 18 -52 32s-21.5 31.167 -26.5 51.5s-7.5 43.166 -7.5 68.499s3.66699 49.5 11 72.5
s18.166 43.167 32.499 60.5s32 31.166 53 41.499s45.5 15.5 73.5 15.5c22.667 0 44 -3.66699 64 -11s37.667 -18.833 53 -34.5s27.5 -36.167 36.5 -61.5s13.5 -56 13.5 -92v-138c0 -34 -5.5 -66.667 -16.5 -98s-27 -58.833 -48 -82.5s-46.5 -42.5 -76.5 -56.5
s-64 -21 -102 -21h-104l-5 88h103zM136.001 168.002c0 -14 1.49902 -26.168 4.49902 -36.501s8.16699 -18.666 15.5 -24.999s17.5 -11 30.5 -14s29.167 -4.5 48.5 -4.5h80v62c0 42 -8.16699 72.167 -24.5 90.5s-39.166 27.5 -68.499 27.5c-28 0 -49.333 -9 -64 -27
s-22 -42.333 -22 -73zM317 506.001l-186 -94.001l-24 47l66 30c-18.667 7.33301 -32 18.666 -40 33.999s-12 31 -12 47c0 28 8.83301 50.5 26.5 67.5s40.5 25.5 68.5 25.5h47l-6 -51h-32c-17.333 0 -30.333 -4.66699 -39 -14s-13 -20.666 -13 -33.999
s4.66699 -24.166 14 -32.499s20.333 -12.5 33 -12.5c8 0 18.5 3.16699 31.5 9.5l45.5 22.5z" />
    <glyph glyph-name="alef.bhmz" unicode="&#x625;" horiz-adv-x="201" arabic-form="isolated" 
d="M59 610h83v-610h-83v610zM211 -261l-186 -94.001l-24 47l66 30c-18.667 7.33301 -32 18.666 -40 33.999s-12 31 -12 47c0 28 8.83301 50.5 26.5 67.5s40.5 25.5 68.5 25.5h47l-6 -51h-32c-17.333 0 -30.333 -4.66699 -39 -14s-13 -20.666 -13 -33.999
s4.66699 -24.166 14 -32.499s20.333 -12.5 33 -12.5c8 0 18.5 3.16699 31.5 9.5l45.5 22.5z" />
    <glyph glyph-name="ye.thmz" unicode="&#x626;" horiz-adv-x="676" arabic-form="isolated" 
d="M360 -154c27.333 0 52.3301 3.00195 74.9971 9.00195s42.334 14.5 59.001 25.5s29.5 24 38.5 39s13.5 31.5 13.5 49.5c0 16 -4.33301 29.167 -13 39.5s-25.334 15.5 -50.001 15.5h-173v182c0 25.333 3.83301 48.666 11.5 69.999s18.667 39.666 33 54.999s32 27.333 53 36
s44.833 13 71.5 13h115l5 -89h-123c-23.333 0 -43.166 -7 -59.499 -21s-24.5 -35.333 -24.5 -64v-94h105c25.333 0 46.333 -3.33301 63 -10s30 -15.667 40 -27s17 -24.833 21 -40.5s6 -32.834 6 -51.501c0 -31.333 -6.66699 -60.666 -20 -87.999
s-31.5 -51.166 -54.5 -71.499s-50 -36.333 -81 -48s-64.5 -17.5 -100.5 -17.5h-86c-37.333 0 -70.666 6 -99.999 18s-54.166 29.167 -74.499 51.5s-35.833 49.333 -46.5 81s-16 67.5 -16 107.5v177h83v-173c0 -52.667 12.833 -94.834 38.5 -126.501
s68.167 -47.5 127.5 -47.5h63zM272.997 396.002l-186 -94.001l-24 47l66 30c-18.667 7.33301 -32 18.666 -40 33.999s-12 31 -12 47c0 28 8.83301 50.5 26.5 67.5s40.5 25.5 68.5 25.5h47l-6 -51h-32c-17.333 0 -30.333 -4.66699 -39 -14s-13 -20.666 -13 -33.999
s4.66699 -24.166 14 -32.499s20.333 -12.5 33 -12.5c8 0 18.5 3.16699 31.5 9.5l45.5 22.5z" />
    <glyph glyph-name="alef" unicode="&#x627;" horiz-adv-x="201" arabic-form="isolated" 
d="M59 610h83v-610h-83v610z" />
    <glyph glyph-name="be" unicode="&#x628;" horiz-adv-x="758" arabic-form="isolated" 
d="M202 0c-27.333 0 -50.833 4.16699 -70.5 12.5s-35.667 19.5 -48 33.5s-21.333 30.333 -27 49s-8.5 38.334 -8.5 59.001v139h83v-118c0 -26.667 6.16699 -47.834 18.5 -63.501s35.833 -23.5 70.5 -23.5h330c51.333 0 77 24.333 77 73v128h81v-145
c0 -23.333 -4 -44 -12 -62s-18.667 -33 -32 -45s-28.833 -21.167 -46.5 -27.5s-36.167 -9.5 -55.5 -9.5h-360zM425 -202h-96v87h96v-87z" />
    <glyph glyph-name="te.marbuta" unicode="&#x629;" horiz-adv-x="453" arabic-form="isolated" 
d="M48 154c0 20 2.66406 38.667 7.99707 56s13.333 35 24 53s24.167 36.5 40.5 55.5s35.5 40.167 57.5 63.5l-46 46l55 59c41.333 -40 75.833 -75 103.5 -105s50 -57 67 -81s29 -46.5 36 -67.5s10.5 -42.833 10.5 -65.5c0 -24 -4.5 -46.333 -13.5 -67
s-21.667 -38.5 -38 -53.5s-35.666 -26.667 -57.999 -35s-46.5 -12.5 -72.5 -12.5s-49.667 3.83301 -71 11.5s-39.666 18.167 -54.999 31.5s-27.166 29.5 -35.499 48.5s-12.5 39.833 -12.5 62.5zM321.997 173c0 10.667 -1.50098 21.001 -4.50098 31.001s-8 20.667 -15 32
s-16.667 24 -29 38s-27.833 30.333 -46.5 49c-21.333 -20 -38.166 -37.5 -50.499 -52.5s-22 -28.5 -29 -40.5s-11.5 -22.833 -13.5 -32.5s-3 -19.167 -3 -28.5c0 -22.667 8 -41.834 24 -57.501s39 -23.5 69 -23.5s53.833 8.5 71.5 25.5s26.5 36.833 26.5 59.5z
M326.996 563.001h-91v84h91v-84zM192.996 563.001h-91v84h91v-84z" />
    <glyph glyph-name="te" unicode="&#x62a;" horiz-adv-x="758" arabic-form="isolated" 
d="M202 0c-27.333 0 -50.833 4.16699 -70.5 12.5s-35.667 19.5 -48 33.5s-21.333 30.333 -27 49s-8.5 38.334 -8.5 59.001v139h83v-118c0 -26.667 6.16699 -47.834 18.5 -63.501s35.833 -23.5 70.5 -23.5h330c51.333 0 77 24.333 77 73v128h81v-145
c0 -23.333 -4 -44 -12 -62s-18.667 -33 -32 -45s-28.833 -21.167 -46.5 -27.5s-36.167 -9.5 -55.5 -9.5h-360zM490 374h-91v84h91v-84zM356 374h-91v84h91v-84z" />
    <glyph glyph-name="the" unicode="&#x62b;" horiz-adv-x="758" arabic-form="isolated" 
d="M202 0c-27.333 0 -50.833 4.16699 -70.5 12.5s-35.667 19.5 -48 33.5s-21.333 30.333 -27 49s-8.5 38.334 -8.5 59.001v139h83v-118c0 -26.667 6.16699 -47.834 18.5 -63.501s35.833 -23.5 70.5 -23.5h330c51.333 0 77 24.333 77 73v128h81v-145
c0 -23.333 -4 -44 -12 -62s-18.667 -33 -32 -45s-28.833 -21.167 -46.5 -27.5s-36.167 -9.5 -55.5 -9.5h-360zM423 503h-91v83h91v-83zM490 374h-91v84h91v-84zM356 374h-91v84h91v-84z" />
    <glyph glyph-name="jim" unicode="&#x62c;" horiz-adv-x="539" arabic-form="isolated" 
d="M397 222c-4.66699 11.333 -9.50195 21.5 -14.502 30.5s-11.167 16.5 -18.5 22.5s-16.666 10.5 -27.999 13.5s-25.333 4.5 -42 4.5h-209l5 88h216c18 0 35.833 -2 53.5 -6s34.5 -12.833 50.5 -26.5s30.833 -33.334 44.5 -59.001s25.5 -60.5 35.5 -104.5l-199 -116
c-31.333 -18 -57.666 -35.667 -78.999 -53s-38.5 -34.5 -51.5 -51.5s-22.167 -34 -27.5 -51s-8 -34.5 -8 -52.5c0 -50 13.833 -88.833 41.5 -116.5s72.834 -41.5 135.501 -41.5h185l-5 -88h-182c-46 0 -85.333 6.33301 -118 19s-59.167 29.667 -79.5 51
s-35.333 46.5 -45 75.5s-14.5 59.833 -14.5 92.5c0 28.667 3.5 55.334 10.5 80.001s18.667 48.5 35 71.5s37.666 45.333 63.999 67s58.833 43.5 97.5 65.5zM401.998 -156h-96v87h96v-87z" />
    <glyph glyph-name="him" unicode="&#x62d;" horiz-adv-x="539" arabic-form="isolated" 
d="M397 222c-4.66699 11.333 -9.50195 21.5 -14.502 30.5s-11.167 16.5 -18.5 22.5s-16.666 10.5 -27.999 13.5s-25.333 4.5 -42 4.5h-209l5 88h216c18 0 35.833 -2 53.5 -6s34.5 -12.833 50.5 -26.5s30.833 -33.334 44.5 -59.001s25.5 -60.5 35.5 -104.5l-199 -116
c-31.333 -18 -57.666 -35.667 -78.999 -53s-38.5 -34.5 -51.5 -51.5s-22.167 -34 -27.5 -51s-8 -34.5 -8 -52.5c0 -50 13.833 -88.833 41.5 -116.5s72.834 -41.5 135.501 -41.5h185l-5 -88h-182c-46 0 -85.333 6.33301 -118 19s-59.167 29.667 -79.5 51
s-35.333 46.5 -45 75.5s-14.5 59.833 -14.5 92.5c0 28.667 3.5 55.334 10.5 80.001s18.667 48.5 35 71.5s37.666 45.333 63.999 67s58.833 43.5 97.5 65.5z" />
    <glyph glyph-name="khe" unicode="&#x62e;" horiz-adv-x="539" arabic-form="isolated" 
d="M397 222c-4.66699 11.333 -9.50195 21.5 -14.502 30.5s-11.167 16.5 -18.5 22.5s-16.666 10.5 -27.999 13.5s-25.333 4.5 -42 4.5h-209l5 88h216c18 0 35.833 -2 53.5 -6s34.5 -12.833 50.5 -26.5s30.833 -33.334 44.5 -59.001s25.5 -60.5 35.5 -104.5l-199 -116
c-31.333 -18 -57.666 -35.667 -78.999 -53s-38.5 -34.5 -51.5 -51.5s-22.167 -34 -27.5 -51s-8 -34.5 -8 -52.5c0 -50 13.833 -88.833 41.5 -116.5s72.834 -41.5 135.501 -41.5h185l-5 -88h-182c-46 0 -85.333 6.33301 -118 19s-59.167 29.667 -79.5 51
s-35.333 46.5 -45 75.5s-14.5 59.833 -14.5 92.5c0 28.667 3.5 55.334 10.5 80.001s18.667 48.5 35 71.5s37.666 45.333 63.999 67s58.833 43.5 97.5 65.5zM300.998 490h-96v86h96v-86z" />
    <glyph glyph-name="dal" unicode="&#x62f;" horiz-adv-x="515" arabic-form="isolated" 
d="M416 243c17.333 -19.333 29.832 -38.832 37.499 -58.499s11.5 -38.834 11.5 -57.501c0 -36 -12.5 -66.167 -37.5 -90.5s-61.833 -36.5 -110.5 -36.5h-274l-6 88h268c20.667 0 36.834 4.83301 48.501 14.5s17.5 22.5 17.5 38.5c0 16.667 -7.33301 33 -22 49l-180 203
l64 60z" />
    <glyph glyph-name="zal" unicode="&#x630;" horiz-adv-x="515" arabic-form="isolated" 
d="M416 243c17.333 -19.333 29.832 -38.832 37.499 -58.499s11.5 -38.834 11.5 -57.501c0 -36 -12.5 -66.167 -37.5 -90.5s-61.833 -36.5 -110.5 -36.5h-274l-6 88h268c20.667 0 36.834 4.83301 48.501 14.5s17.5 22.5 17.5 38.5c0 16.667 -7.33301 33 -22 49l-180 203
l64 60zM279.999 550.001h-96v86h96v-86z" />
    <glyph glyph-name="re" unicode="&#x631;" horiz-adv-x="215" arabic-form="isolated" 
d="M165 16c0 -37.333 -6.16992 -71.667 -18.5029 -103s-29.166 -58.5 -50.499 -81.5s-46.666 -41 -75.999 -54s-61 -19.5 -95 -19.5h-60l-6 88h46c32 0 59.167 4.66699 81.5 14s40.833 22 55.5 38s25.334 34.167 32.001 54.5s10 41.5 10 63.5v273h81v-273v0z" />
    <glyph glyph-name="ze" unicode="&#x632;" horiz-adv-x="215" arabic-form="isolated" 
d="M165 16c0 -37.333 -6.16992 -71.667 -18.5029 -103s-29.166 -58.5 -50.499 -81.5s-46.666 -41 -75.999 -54s-61 -19.5 -95 -19.5h-60l-6 88h46c32 0 59.167 4.66699 81.5 14s40.833 22 55.5 38s25.334 34.167 32.001 54.5s10 41.5 10 63.5v273h81v-273v0z
M166.997 410.999h-96v86h96v-86z" />
    <glyph glyph-name="sin" unicode="&#x633;" horiz-adv-x="1119" arabic-form="isolated" 
d="M842 161c0 -27.333 7.32812 -46.332 21.9951 -56.999s31.334 -16 50.001 -16c22.667 0 40.667 6.33301 54 19s20 30.667 20 54v128h82v-133c0 -50.667 -13.667 -89.334 -41 -116.001s-65 -40 -113 -40c-23.333 -0 -45.333 4.33301 -66 13s-37.667 25.667 -51 51
c-15.333 -25.333 -33.833 -42.333 -55.5 -51s-43.5 -13 -65.5 -13c-39.333 0 -68 12 -86 36v-20c0 -34 -5.66699 -66.667 -17 -98s-27.666 -58.833 -48.999 -82.5s-47.166 -42.5 -77.499 -56.5s-64.5 -21 -102.5 -21h-61c-37.333 0 -70.666 6 -99.999 18
s-54.166 29.167 -74.499 51.5s-35.833 49.333 -46.5 81s-16 67.5 -16 107.5v177h83v-173c0 -52.667 12.833 -94.834 38.5 -126.501s68.167 -47.5 127.5 -47.5h44c30 0 55.833 4.66699 77.5 14s39.5 22 53.5 38s24.333 34.5 31 55.5s10 43.167 10 66.5v269h81v-132
c0 -21.333 7.5 -38.166 22.5 -50.499s34.167 -18.5 57.5 -18.5c57.333 0 86 24.333 86 73v128h82v-128z" />
    <glyph glyph-name="shin" unicode="&#x634;" horiz-adv-x="1119" arabic-form="isolated" 
d="M842 161c0 -27.333 7.32812 -46.332 21.9951 -56.999s31.334 -16 50.001 -16c22.667 0 40.667 6.33301 54 19s20 30.667 20 54v128h82v-133c0 -50.667 -13.667 -89.334 -41 -116.001s-65 -40 -113 -40c-23.333 -0 -45.333 4.33301 -66 13s-37.667 25.667 -51 51
c-15.333 -25.333 -33.833 -42.333 -55.5 -51s-43.5 -13 -65.5 -13c-39.333 0 -68 12 -86 36v-20c0 -34 -5.66699 -66.667 -17 -98s-27.666 -58.833 -48.999 -82.5s-47.166 -42.5 -77.499 -56.5s-64.5 -21 -102.5 -21h-61c-37.333 0 -70.666 6 -99.999 18
s-54.166 29.167 -74.499 51.5s-35.833 49.333 -46.5 81s-16 67.5 -16 107.5v177h83v-173c0 -52.667 12.833 -94.834 38.5 -126.501s68.167 -47.5 127.5 -47.5h44c30 0 55.833 4.66699 77.5 14s39.5 22 53.5 38s24.333 34.5 31 55.5s10 43.167 10 66.5v269h81v-132
c0 -21.333 7.5 -38.166 22.5 -50.499s34.167 -18.5 57.5 -18.5c57.333 0 86 24.333 86 73v128h82v-128zM845.995 540.001h-91v83h91v-83zM912.995 411.001h-91v84h91v-84zM778.995 411.001h-91v84h91v-84z" />
    <glyph glyph-name="sad" unicode="&#x635;" horiz-adv-x="1177" arabic-form="isolated" 
d="M1046 185c0 14 -2.33203 27.334 -6.99902 40.001s-11.334 23.667 -20.001 33s-19 16.833 -31 22.5s-25.333 8.5 -40 8.5c-30 0 -61.5 -15.833 -94.5 -47.5s-70.5 -82.834 -112.5 -153.501h211c25.333 0 47.333 8 66 24s28 40.333 28 73zM660.001 90.001
c28 51.333 54.8291 95.168 80.4961 131.501s50.334 66 74.001 89s47 39.833 70 50.5s46.167 16 69.5 16c26 0 49.667 -5 71 -15s39.5 -23.667 54.5 -41s26.667 -37.666 35 -60.999s12.5 -48.333 12.5 -75c0 -22.667 -3.5 -45 -10.5 -67s-17.833 -41.833 -32.5 -59.5
s-33.334 -31.834 -56.001 -42.501s-49.334 -16 -80.001 -16h-258c-21.333 0 -40.666 3.33301 -57.999 10s-30.666 16.667 -39.999 30v-24c0 -34 -5.66699 -66.667 -17 -98s-27.666 -58.833 -48.999 -82.5s-47.166 -42.5 -77.499 -56.5s-64.5 -21 -102.5 -21h-61
c-37.333 0 -70.666 6 -99.999 18s-54.166 29.167 -74.499 51.5s-35.833 49.333 -46.5 81s-16 67.5 -16 107.5v177h83v-173c0 -52.667 12.833 -94.834 38.5 -126.501s68.167 -47.5 127.5 -47.5h44c30 0 55.833 4.66699 77.5 14s39.5 22 53.5 38s24.333 34.5 31 55.5
s10 43.167 10 66.5v269h81v-116c0 -22 5.16699 -40.667 15.5 -56s27.166 -24.333 50.499 -27z" />
    <glyph glyph-name="zad" unicode="&#x636;" horiz-adv-x="1177" arabic-form="isolated" 
d="M1046 185c0 14 -2.33203 27.334 -6.99902 40.001s-11.334 23.667 -20.001 33s-19 16.833 -31 22.5s-25.333 8.5 -40 8.5c-30 0 -61.5 -15.833 -94.5 -47.5s-70.5 -82.834 -112.5 -153.501h211c25.333 0 47.333 8 66 24s28 40.333 28 73zM660.001 90.001
c28 51.333 54.8291 95.168 80.4961 131.501s50.334 66 74.001 89s47 39.833 70 50.5s46.167 16 69.5 16c26 0 49.667 -5 71 -15s39.5 -23.667 54.5 -41s26.667 -37.666 35 -60.999s12.5 -48.333 12.5 -75c0 -22.667 -3.5 -45 -10.5 -67s-17.833 -41.833 -32.5 -59.5
s-33.334 -31.834 -56.001 -42.501s-49.334 -16 -80.001 -16h-258c-21.333 0 -40.666 3.33301 -57.999 10s-30.666 16.667 -39.999 30v-24c0 -34 -5.66699 -66.667 -17 -98s-27.666 -58.833 -48.999 -82.5s-47.166 -42.5 -77.499 -56.5s-64.5 -21 -102.5 -21h-61
c-37.333 0 -70.666 6 -99.999 18s-54.166 29.167 -74.499 51.5s-35.833 49.333 -46.5 81s-16 67.5 -16 107.5v177h83v-173c0 -52.667 12.833 -94.834 38.5 -126.501s68.167 -47.5 127.5 -47.5h44c30 0 55.833 4.66699 77.5 14s39.5 22 53.5 38s24.333 34.5 31 55.5
s10 43.167 10 66.5v269h81v-116c0 -22 5.16699 -40.667 15.5 -56s27.166 -24.333 50.499 -27zM960.997 482.003h-96v86h96v-86z" />
    <glyph glyph-name="ta" unicode="&#x637;" horiz-adv-x="659" arabic-form="isolated" 
d="M136 610h82.002v-282v-64c0 -20 -0.666992 -41 -2 -63c40 62.667 77.667 107.667 113 135s71 41 107 41c26 0 49.667 -5 71 -15s39.5 -23.667 54.5 -41s26.667 -37.666 35 -60.999s12.5 -48.333 12.5 -75c0 -22.667 -3.5 -45 -10.5 -67s-17.833 -41.833 -32.5 -59.5
s-33.334 -31.834 -56.001 -42.501s-49.334 -16 -80.001 -16h-382l-5 88h93v522zM528.002 185c0 14 -2.33301 27.3311 -7 39.998s-11.334 23.667 -20.001 33s-19 16.833 -31 22.5s-25.333 8.5 -40 8.5c-15.333 0 -30.5 -3.66699 -45.5 -11s-31 -19.166 -48 -35.499
s-35.167 -37.166 -54.5 -62.499s-40.666 -56 -63.999 -92h215c25.333 0 47.5 8 66.5 24s28.5 40.333 28.5 73z" />
    <glyph glyph-name="za" unicode="&#x638;" horiz-adv-x="659" arabic-form="isolated" 
d="M136 610h82.002v-282v-64c0 -20 -0.666992 -41 -2 -63c40 62.667 77.667 107.667 113 135s71 41 107 41c26 0 49.667 -5 71 -15s39.5 -23.667 54.5 -41s26.667 -37.666 35 -60.999s12.5 -48.333 12.5 -75c0 -22.667 -3.5 -45 -10.5 -67s-17.833 -41.833 -32.5 -59.5
s-33.334 -31.834 -56.001 -42.501s-49.334 -16 -80.001 -16h-382l-5 88h93v522zM528.002 185c0 14 -2.33301 27.3311 -7 39.998s-11.334 23.667 -20.001 33s-19 16.833 -31 22.5s-25.333 8.5 -40 8.5c-15.333 0 -30.5 -3.66699 -45.5 -11s-31 -19.166 -48 -35.499
s-35.167 -37.166 -54.5 -62.499s-40.666 -56 -63.999 -92h215c25.333 0 47.5 8 66.5 24s28.5 40.333 28.5 73zM490.002 493.998h-96v86h96v-86z" />
    <glyph glyph-name="ein" unicode="&#x639;" horiz-adv-x="513" arabic-form="isolated" 
d="M170 46c-12.667 10.667 -23.002 22.499 -31.002 35.499s-14.333 26 -19 39s-8 25.833 -10 38.5s-3 24 -3 34c0 25.333 4.16699 49 12.5 71s20.333 41 36 57s34.334 28.667 56.001 38s45.834 14 72.501 14c23.333 0 45.833 -3.66699 67.5 -11s44.834 -19.333 69.501 -36
l-35 -71c-20.667 11.333 -38.834 19.166 -54.501 23.499s-31.5 6.5 -47.5 6.5c-29.333 0 -52.666 -9.5 -69.999 -28.5s-26 -40.833 -26 -65.5c0 -14 2.5 -27.167 7.5 -39.5s11.833 -23.166 20.5 -32.499s18.667 -16.833 30 -22.5s23.666 -8.5 36.999 -8.5h163l-6 -88h-156
c-24.667 0 -46.667 -4.16699 -66 -12.5s-35.5 -19.5 -48.5 -33.5s-23 -30 -30 -48s-10.5 -36.667 -10.5 -56c0 -45.333 12.833 -81.166 38.5 -107.499s70.167 -39.5 133.5 -39.5h175l-5 -88h-173c-46 0 -85 6 -117 18s-58 28.333 -78 49s-34.5 45 -43.5 73
s-13.5 58 -13.5 90c0 41.333 10.167 79.833 30.5 115.5s51.5 64.167 93.5 85.5z" />
    <glyph glyph-name="qein" unicode="&#x63a;" horiz-adv-x="513" arabic-form="isolated" 
d="M170 46c-12.667 10.667 -23.002 22.499 -31.002 35.499s-14.333 26 -19 39s-8 25.833 -10 38.5s-3 24 -3 34c0 25.333 4.16699 49 12.5 71s20.333 41 36 57s34.334 28.667 56.001 38s45.834 14 72.501 14c23.333 0 45.833 -3.66699 67.5 -11s44.834 -19.333 69.501 -36
l-35 -71c-20.667 11.333 -38.834 19.166 -54.501 23.499s-31.5 6.5 -47.5 6.5c-29.333 0 -52.666 -9.5 -69.999 -28.5s-26 -40.833 -26 -65.5c0 -14 2.5 -27.167 7.5 -39.5s11.833 -23.166 20.5 -32.499s18.667 -16.833 30 -22.5s23.666 -8.5 36.999 -8.5h163l-6 -88h-156
c-24.667 0 -46.667 -4.16699 -66 -12.5s-35.5 -19.5 -48.5 -33.5s-23 -30 -30 -48s-10.5 -36.667 -10.5 -56c0 -45.333 12.833 -81.166 38.5 -107.499s70.167 -39.5 133.5 -39.5h175l-5 -88h-173c-46 0 -85 6 -117 18s-58 28.333 -78 49s-34.5 45 -43.5 73
s-13.5 58 -13.5 90c0 41.333 10.167 79.833 30.5 115.5s51.5 64.167 93.5 85.5zM322.998 487.999h-96v86h96v-86z" />
    <glyph glyph-name="fe" unicode="&#x641;" horiz-adv-x="840" arabic-form="isolated" 
d="M453 250c0 18 3.5 36.6689 10.5 56.002s17.5 36.666 31.5 51.999s31.5 28 52.5 38s45.167 15 72.5 15c26 0 49.5 -3.33301 70.5 -10s39 -17.667 54 -33s26.5 -35.5 34.5 -60.5s12 -55.5 12 -91.5v-48c0 -52 -15.5 -93 -46.5 -123s-79.833 -45 -146.5 -45h-396
c-27.333 0 -50.833 4.16699 -70.5 12.5s-35.667 19.5 -48 33.5s-21.333 30.333 -27 49s-8.5 38.334 -8.5 59.001v139h83v-118c0 -26.667 6.16699 -47.834 18.5 -63.501s35.833 -23.5 70.5 -23.5h261h35.5h26.5c8 0 15.667 -0.333008 23 -1s15.333 -1.66699 24 -3
c-31.333 11.333 -56 22.833 -74 34.5s-31.667 24 -41 37s-15.333 27.167 -18 42.5s-4 32.666 -4 51.999zM529 237.002c0 -11.333 1.16992 -21.834 3.50293 -31.501s8.66602 -19.5 18.999 -29.5s26 -20.5 47 -31.5s50.167 -23.5 87.5 -37.5c18 16 27 39.667 27 71v30
c0 35.333 -7.33301 63.333 -22 84s-39.334 31 -74.001 31c-14 0 -26.5 -2.5 -37.5 -7.5s-20.333 -11.667 -28 -20s-13.334 -17.666 -17.001 -27.999s-5.5 -20.5 -5.5 -30.5zM668.003 506.001h-96v86h96v-86z" />
    <glyph glyph-name="qaf" unicode="&#x642;" horiz-adv-x="701" arabic-form="isolated" 
d="M400 -154c27.333 0 51.3311 4.00293 71.998 12.0029s38.167 19 52.5 33s25.333 30.333 33 49s12.167 38.667 13.5 60h-85c-34 0 -62 3.66699 -84 11s-39.333 18 -52 32s-21.5 31.167 -26.5 51.5s-7.5 43.166 -7.5 68.499s3.66699 49.5 11 72.5s18 43.167 32 60.5
s31.5 31.166 52.5 41.499s45.5 15.5 73.5 15.5c22 0 43.167 -3.66699 63.5 -11s38 -18.833 53 -34.5s27 -36.167 36 -61.5s13.5 -56 13.5 -92v-138c0 -34 -5.66699 -66.667 -17 -98s-27.5 -58.833 -48.5 -82.5s-46.667 -42.5 -77 -56.5s-64.5 -21 -102.5 -21h-121
c-37.333 0 -70.666 6 -99.999 18s-54.166 29.167 -74.499 51.5s-35.833 49.333 -46.5 81s-16 67.5 -16 107.5v177h83v-173c0 -52.667 12.833 -94.834 38.5 -126.501s68.167 -47.5 127.5 -47.5h103zM393.998 168.003c0 -14 1.5 -26.168 4.5 -36.501
s8.16699 -18.666 15.5 -24.999s17.5 -11 30.5 -14s29.167 -4.5 48.5 -4.5h79v62c0 42 -7.83301 72.167 -23.5 90.5s-38.167 27.5 -67.5 27.5c-28 0 -49.5 -9 -64.5 -27s-22.5 -42.333 -22.5 -73zM597.998 459.002h-91v84h91v-84zM463.998 459.002h-91v84h91v-84z" />
    <glyph glyph-name="kaf.arab" unicode="&#x643;" horiz-adv-x="752" arabic-form="isolated" 
d="M403 209l-0.000976562 79.999c0 7.33301 -1.83301 12.833 -5.5 16.5s-10.167 5.5 -19.5 5.5h-127v124c0 34.667 9.33301 61.834 28 81.501s46.334 29.5 83.001 29.5h54l5 -64h-56c-35.333 0 -53 -18 -53 -54v-53h95c21.333 0 36 -6.5 44 -19.5s12 -27.167 12 -42.5v-104
h-60zM201.999 -0.000976562c-27.333 0 -50.833 4.16797 -70.5 12.501s-35.667 19.5 -48 33.5s-21.333 30.333 -27 49s-8.5 38.334 -8.5 59.001v139h83v-118c0 -26.667 6.16699 -47.834 18.5 -63.501s35.833 -23.5 70.5 -23.5h313c24.667 0 43.667 6.33301 57 19
s20 30.667 20 54v449h82v-454c0 -50.667 -13.5 -89.334 -40.5 -116.001s-64.5 -40 -112.5 -40h-337z" />
    <glyph glyph-name="lam" unicode="&#x644;" horiz-adv-x="648" arabic-form="isolated" 
d="M594 22c0 -36.667 -5.83496 -70.999 -17.502 -102.999s-28.167 -60 -49.5 -84s-47.333 -42.833 -78 -56.5s-65 -20.5 -103 -20.5h-61c-37.333 0 -70.666 6 -99.999 18s-54.166 29.167 -74.499 51.5s-35.833 49.333 -46.5 81s-16 67.5 -16 107.5v177h83v-173
c0 -52.667 12.833 -94.834 38.5 -126.501s68.167 -47.5 127.5 -47.5h44c30 0 55.833 4.66699 77.5 14s39.5 22 53.5 38s24.333 34.5 31 55.5s10 43.167 10 66.5v590h81v-588z" />
    <glyph glyph-name="mim" unicode="&#x645;" horiz-adv-x="618" arabic-form="isolated" 
d="M398 0c-46 0 -83.167 12.165 -111.5 36.498s-42.5 59.833 -42.5 106.5v56c0 20.667 2.33301 37.834 7 51.501s12.667 25.834 24 36.501h-33c-38 0 -66 -8.66699 -84 -26s-27 -41 -27 -71v-432h-83v436c0 23.333 4.16699 45.833 12.5 67.5s20.5 40.667 36.5 57
s36 29.5 60 39.5s52 15 84 15h181c27.333 0 50.5 -3.83301 69.5 -11.5s34.333 -17.834 46 -30.501s20 -27.5 25 -44.5s7.5 -34.5 7.5 -52.5v-88c0 -25.333 -4.5 -47.166 -13.5 -65.499s-21.167 -33.5 -36.5 -45.5s-33.5 -20.833 -54.5 -26.5s-43.5 -8.5 -67.5 -8.5z
M406 87.998c27.333 0 48.333 5.83301 63 17.5s22 29.167 22 52.5v55c0 20 -5.5 37 -16.5 51s-29.167 21 -54.5 21h-27c-25.333 0 -43.5 -7 -54.5 -21s-16.5 -31.667 -16.5 -53v-50c0 -48.667 28 -73 84 -73z" />
    <glyph glyph-name="nun" unicode="&#x646;" horiz-adv-x="643" arabic-form="isolated" 
d="M594 22c0 -36.667 -5.83496 -70.999 -17.502 -102.999s-28.167 -60 -49.5 -84s-47.333 -42.833 -78 -56.5s-65 -20.5 -103 -20.5h-61c-37.333 0 -70.666 6 -99.999 18s-54.166 29.167 -74.499 51.5s-35.833 49.333 -46.5 81s-16 67.5 -16 107.5v177h83v-173
c0 -52.667 12.833 -94.834 38.5 -126.501s68.167 -47.5 127.5 -47.5h44c30 0 55.833 4.66699 77.5 14s39.5 22 53.5 38s24.333 34.5 31 55.5s10 43.167 10 66.5v269h81v-267zM354.998 308.001h-96v86h96v-86z" />
    <glyph glyph-name="he" unicode="&#x647;" horiz-adv-x="453" arabic-form="isolated" 
d="M48 154c0 20 2.66406 38.667 7.99707 56s13.333 35 24 53s24.167 36.5 40.5 55.5s35.5 40.167 57.5 63.5l-46 46l55 59c41.333 -40 75.833 -75 103.5 -105s50 -57 67 -81s29 -46.5 36 -67.5s10.5 -42.833 10.5 -65.5c0 -24 -4.5 -46.333 -13.5 -67
s-21.667 -38.5 -38 -53.5s-35.666 -26.667 -57.999 -35s-46.5 -12.5 -72.5 -12.5s-49.667 3.83301 -71 11.5s-39.666 18.167 -54.999 31.5s-27.166 29.5 -35.499 48.5s-12.5 39.833 -12.5 62.5zM321.997 173c0 10.667 -1.50098 21.001 -4.50098 31.001s-8 20.667 -15 32
s-16.667 24 -29 38s-27.833 30.333 -46.5 49c-21.333 -20 -38.166 -37.5 -50.499 -52.5s-22 -28.5 -29 -40.5s-11.5 -22.833 -13.5 -32.5s-3 -19.167 -3 -28.5c0 -22.667 8 -41.834 24 -57.501s39 -23.5 69 -23.5s53.833 8.5 71.5 25.5s26.5 36.833 26.5 59.5z" />
    <glyph glyph-name="vav" unicode="&#x648;" horiz-adv-x="442" arabic-form="isolated" 
d="M145 -154c27.333 0 51.334 4.00195 72.001 12.002s37.834 19 51.501 33s24.167 30.333 31.5 49s11.666 38.667 12.999 60h-85c-34.667 0 -63 3.66699 -85 11s-39.333 18 -52 32s-21.5 31.167 -26.5 51.5s-7.5 43.166 -7.5 68.499s3.66699 49.5 11 72.5
s18.166 43.167 32.499 60.5s32 31.166 53 41.499s45.5 15.5 73.5 15.5c22.667 0 44 -3.66699 64 -11s37.667 -18.833 53 -34.5s27.5 -36.167 36.5 -61.5s13.5 -56 13.5 -92v-138c0 -34 -5.5 -66.667 -16.5 -98s-27 -58.833 -48 -82.5s-46.5 -42.5 -76.5 -56.5
s-64 -21 -102 -21h-104l-5 88h103zM136.001 168.002c0 -14 1.49902 -26.168 4.49902 -36.501s8.16699 -18.666 15.5 -24.999s17.5 -11 30.5 -14s29.167 -4.5 48.5 -4.5h80v62c0 42 -8.16699 72.167 -24.5 90.5s-39.166 27.5 -68.499 27.5c-28 0 -49.333 -9 -64 -27
s-22 -42.333 -22 -73z" />
    <glyph glyph-name="alef.maksura" unicode="&#x649;" horiz-adv-x="676" arabic-form="isolated" 
d="M360 -154c27.333 0 52.3301 3.00195 74.9971 9.00195s42.334 14.5 59.001 25.5s29.5 24 38.5 39s13.5 31.5 13.5 49.5c0 16 -4.33301 29.167 -13 39.5s-25.334 15.5 -50.001 15.5h-173v182c0 25.333 3.83301 48.666 11.5 69.999s18.667 39.666 33 54.999s32 27.333 53 36
s44.833 13 71.5 13h115l5 -89h-123c-23.333 0 -43.166 -7 -59.499 -21s-24.5 -35.333 -24.5 -64v-94h105c25.333 0 46.333 -3.33301 63 -10s30 -15.667 40 -27s17 -24.833 21 -40.5s6 -32.834 6 -51.501c0 -31.333 -6.66699 -60.666 -20 -87.999
s-31.5 -51.166 -54.5 -71.499s-50 -36.333 -81 -48s-64.5 -17.5 -100.5 -17.5h-86c-37.333 0 -70.666 6 -99.999 18s-54.166 29.167 -74.499 51.5s-35.833 49.333 -46.5 81s-16 67.5 -16 107.5v177h83v-173c0 -52.667 12.833 -94.834 38.5 -126.501
s68.167 -47.5 127.5 -47.5h63z" />
    <glyph glyph-name="ye.arab" unicode="&#x64a;" horiz-adv-x="676" arabic-form="isolated" 
d="M360 -154c27.333 0 52.3301 3.00195 74.9971 9.00195s42.334 14.5 59.001 25.5s29.5 24 38.5 39s13.5 31.5 13.5 49.5c0 16 -4.33301 29.167 -13 39.5s-25.334 15.5 -50.001 15.5h-173v182c0 25.333 3.83301 48.666 11.5 69.999s18.667 39.666 33 54.999s32 27.333 53 36
s44.833 13 71.5 13h115l5 -89h-123c-23.333 0 -43.166 -7 -59.499 -21s-24.5 -35.333 -24.5 -64v-94h105c25.333 0 46.333 -3.33301 63 -10s30 -15.667 40 -27s17 -24.833 21 -40.5s6 -32.834 6 -51.501c0 -31.333 -6.66699 -60.666 -20 -87.999
s-31.5 -51.166 -54.5 -71.499s-50 -36.333 -81 -48s-64.5 -17.5 -100.5 -17.5h-86c-37.333 0 -70.666 6 -99.999 18s-54.166 29.167 -74.499 51.5s-35.833 49.333 -46.5 81s-16 67.5 -16 107.5v177h83v-173c0 -52.667 12.833 -94.834 38.5 -126.501
s68.167 -47.5 127.5 -47.5h63zM433.997 -427.998h-88v84h88v-84zM297.997 -427.998h-89v84h89v-84z" />
    <glyph glyph-name="alef.vasla" unicode="&#x671;" horiz-adv-x="201" arabic-form="isolated" 
d="M59 457h83v-457h-83v457zM26 590c25.333 50.667 49.501 86.333 72.501 107s46.833 31 71.5 31c22 0 41 -8.5 57 -25.5s24 -38.833 24 -65.5c0 -10 -1.83301 -20.833 -5.5 -32.5s-9.66699 -22.5 -18 -32.5s-19.333 -18.167 -33 -24.5s-30.834 -9.5 -51.501 -9.5h-132
l-28 25v94l43 5v-72zM147.001 587.999c17.333 0 31.5 3.83203 42.5 11.499s16.5 19.834 16.5 36.501c0 11.333 -3.83301 21.333 -11.5 30s-18.167 13 -31.5 13c-15.333 0 -30.5 -8 -45.5 -24s-30.833 -38.333 -47.5 -67h77z" />
    <glyph glyph-name="pe" unicode="&#x67e;" horiz-adv-x="758" arabic-form="isolated" 
d="M202 0c-27.333 0 -50.833 4.16699 -70.5 12.5s-35.667 19.5 -48 33.5s-21.333 30.333 -27 49s-8.5 38.334 -8.5 59.001v139h83v-118c0 -26.667 6.16699 -47.834 18.5 -63.501s35.833 -23.5 70.5 -23.5h330c51.333 0 77 24.333 77 73v128h81v-145
c0 -23.333 -4 -44 -12 -62s-18.667 -33 -32 -45s-28.833 -21.167 -46.5 -27.5s-36.167 -9.5 -55.5 -9.5h-360zM427 -327h-91v82h91v-82zM494 -199h-91v84h91v-84zM360 -199h-91v84h91v-84z" />
    <glyph glyph-name="che" unicode="&#x686;" horiz-adv-x="539" arabic-form="isolated" 
d="M397 222c-4.66699 11.333 -9.50195 21.5 -14.502 30.5s-11.167 16.5 -18.5 22.5s-16.666 10.5 -27.999 13.5s-25.333 4.5 -42 4.5h-209l5 88h216c18 0 35.833 -2 53.5 -6s34.5 -12.833 50.5 -26.5s30.833 -33.334 44.5 -59.001s25.5 -60.5 35.5 -104.5l-199 -116
c-31.333 -18 -57.666 -35.667 -78.999 -53s-38.5 -34.5 -51.5 -51.5s-22.167 -34 -27.5 -51s-8 -34.5 -8 -52.5c0 -50 13.833 -88.833 41.5 -116.5s72.834 -41.5 135.501 -41.5h185l-5 -88h-182c-46 0 -85.333 6.33301 -118 19s-59.167 29.667 -79.5 51
s-35.333 46.5 -45 75.5s-14.5 59.833 -14.5 92.5c0 28.667 3.5 55.334 10.5 80.001s18.667 48.5 35 71.5s37.666 45.333 63.999 67s58.833 43.5 97.5 65.5zM400.285 -222.506h-83.4912v75.2334h83.4912v-75.2334zM461.756 -105.068h-83.4902v77.0684h83.4902v-77.0684z
M338.813 -105.068h-83.4912v77.0684h83.4912v-77.0684z" />
    <glyph glyph-name="re.bv.fina" unicode="&#x695;" horiz-adv-x="254" 
d="M162 16c0 -37.333 -6.00293 -71.667 -18.0029 -103s-28.5 -58.5 -49.5 -81.5s-46 -41 -75 -54s-60.5 -19.5 -94.5 -19.5h-60l-6 88h46c32 0 59.167 4.66699 81.5 14s40.833 22 55.5 38s25.334 34.167 32.001 54.5s10 41.5 10 63.5v273h81v-132
c0 -21.333 7.33301 -38.166 22 -50.499s33.334 -18.5 56.001 -18.5h11c8.66699 0 14.5 -3.5 17.5 -10.5s4.5 -17.5 4.5 -31.5c0 -16 -1.5 -27.667 -4.5 -35s-8.83301 -11 -17.5 -11h-11c-15.333 0 -30.166 2.66699 -44.499 8s-26.5 14.666 -36.5 27.999v-20z
M128.997 -283.001l42 -27l-91 -180h-44l-91 180l41 27l72 -146z" />
    <glyph glyph-name="je" unicode="&#x698;" horiz-adv-x="215" arabic-form="isolated" 
d="M165 16c0 -37.333 -6.16992 -71.667 -18.5029 -103s-29.166 -58.5 -50.499 -81.5s-46.666 -41 -75.999 -54s-61 -19.5 -95 -19.5h-60l-6 88h46c32 0 59.167 4.66699 81.5 14s40.833 22 55.5 38s25.334 34.167 32.001 54.5s10 41.5 10 63.5v273h81v-273v0z
M155.997 539.999h-91v83h91v-83zM222.997 410.999h-91v84h91v-84zM88.9971 410.999h-91v84h91v-84z" />
    <glyph glyph-name="veh" unicode="&#x6a4;" horiz-adv-x="840" arabic-form="isolated" 
d="M453 250c0 18 3.5 36.6689 10.5 56.002s17.5 36.666 31.5 51.999s31.5 28 52.5 38s45.167 15 72.5 15c26 0 49.5 -3.33301 70.5 -10s39 -17.667 54 -33s26.5 -35.5 34.5 -60.5s12 -55.5 12 -91.5v-48c0 -52 -15.5 -93 -46.5 -123s-79.833 -45 -146.5 -45h-396
c-27.333 0 -50.833 4.16699 -70.5 12.5s-35.667 19.5 -48 33.5s-21.333 30.333 -27 49s-8.5 38.334 -8.5 59.001v139h83v-118c0 -26.667 6.16699 -47.834 18.5 -63.501s35.833 -23.5 70.5 -23.5h261h35.5h26.5c8 0 15.667 -0.333008 23 -1s15.333 -1.66699 24 -3
c-31.333 11.333 -56 22.833 -74 34.5s-31.667 24 -41 37s-15.333 27.167 -18 42.5s-4 32.666 -4 51.999zM529 237.002c0 -11.333 1.16992 -21.834 3.50293 -31.501s8.66602 -19.5 18.999 -29.5s26 -20.5 47 -31.5s50.167 -23.5 87.5 -37.5c18 16 27 39.667 27 71v30
c0 35.333 -7.33301 63.333 -22 84s-39.334 31 -74.001 31c-14 0 -26.5 -2.5 -37.5 -7.5s-20.333 -11.667 -28 -20s-13.334 -17.666 -17.001 -27.999s-5.5 -20.5 -5.5 -30.5zM665.003 635.001h-91v83h91v-83zM732.003 506.001h-91v84h91v-84zM598.003 506.001h-91v84h91v-84z
" />
    <glyph glyph-name="kaf" unicode="&#x6a9;" horiz-adv-x="782" arabic-form="isolated" 
d="M573 88c24 0 40.667 4.99707 50 14.9971s14 22.333 14 37c0 10.667 -2 21.834 -6 33.501s-13.333 24.834 -28 39.501l-208 208v91l335 128l18 -81l-273 -104l171 -170c16.667 -16.667 30.167 -31.667 40.5 -45s18.333 -26.166 24 -38.499s9.5 -24.5 11.5 -36.5
s3 -24.333 3 -37c0 -22.667 -3.66699 -42 -11 -58s-17.333 -29.167 -30 -39.5s-27.667 -18 -45 -23s-36.333 -7.5 -57 -7.5h-380c-27.333 0 -50.833 4.16699 -70.5 12.5s-35.667 19.5 -48 33.5s-21.333 30.333 -27 49s-8.5 38.334 -8.5 59.001v139h83v-118
c0 -26.667 6.16699 -47.834 18.5 -63.501s35.833 -23.5 70.5 -23.5h353z" />
    <glyph glyph-name="gaf" unicode="&#x6af;" horiz-adv-x="782" arabic-form="isolated" 
d="M389 657l313 120l12 -61l-321 -123zM573 88c24 0 40.667 4.99707 50 14.9971s14 22.333 14 37c0 10.667 -2 21.834 -6 33.501s-13.333 24.834 -28 39.501l-208 208v91l335 128l18 -81l-273 -104l171 -170c16.667 -16.667 30.167 -31.667 40.5 -45
s18.333 -26.166 24 -38.499s9.5 -24.5 11.5 -36.5s3 -24.333 3 -37c0 -22.667 -3.66699 -42 -11 -58s-17.333 -29.167 -30 -39.5s-27.667 -18 -45 -23s-36.333 -7.5 -57 -7.5h-380c-27.333 0 -50.833 4.16699 -70.5 12.5s-35.667 19.5 -48 33.5s-21.333 30.333 -27 49
s-8.5 38.334 -8.5 59.001v139h83v-118c0 -26.667 6.16699 -47.834 18.5 -63.501s35.833 -23.5 70.5 -23.5h353z" />
    <glyph glyph-name="lam.tv.init" unicode="&#x6b5;" horiz-adv-x="243" 
d="M24 88c24.667 0 43.666 6.33398 56.999 19.001s20 30.667 20 54v296h83v-301c0 -50.667 -13.667 -89.334 -41 -116.001s-64.666 -40 -111.999 -40h-31c-8.66699 0 -14.5 3.5 -17.5 10.5s-4.5 17.5 -4.5 31.5c0 16 1.5 27.667 4.5 35s8.83301 11 17.5 11h24z
M210.999 719.001l42 -27l-91 -180h-44l-91 180l41 27l72 -146z" />
    <glyph glyph-name="lam.tvmedi" unicode="&#x6b5;" horiz-adv-x="278" 
d="M24 88c51.333 0 77 24.333 77 73v296h83v-296c0 -13.333 2.16699 -24.666 6.5 -33.999s10.166 -16.833 17.499 -22.5s15.833 -9.83398 25.5 -12.501s19.834 -4 30.501 -4h14c8.66699 0 14.5 -3.5 17.5 -10.5s4.5 -17.5 4.5 -31.5c0 -16 -1.5 -27.667 -4.5 -35
s-8.83301 -11 -17.5 -11h-17c-24.667 -0 -47.5 4.33301 -68.5 13s-38.5 25.667 -52.5 51c-15.333 -25.333 -33 -42.333 -53 -51s-41 -13 -63 -13h-24c-8.66699 0 -14.5 3.5 -17.5 10.5s-4.5 17.5 -4.5 31.5c0 16 1.5 27.667 4.5 35s8.83301 11 17.5 11h24zM211 719l42 -27
l-91 -180h-44l-91 180l41 27l72 -146z" />
    <glyph glyph-name="lam.tv.fina" unicode="&#x6b5;" horiz-adv-x="683" 
d="M672 0c-15.333 0 -30.0049 2.66797 -44.0049 8.00098s-26 14.666 -36 27.999v-16c0 -36 -5.66699 -69.833 -17 -101.5s-27.666 -59.5 -48.999 -83.5s-47.166 -42.833 -77.499 -56.5s-64.5 -20.5 -102.5 -20.5h-61c-37.333 0 -70.666 6 -99.999 18
s-54.166 29.167 -74.499 51.5s-35.833 49.333 -46.5 81s-16 67.5 -16 107.5v177h83v-173c0 -52.667 12.833 -94.834 38.5 -126.501s68.167 -47.5 127.5 -47.5h44c30 0 55.833 4.66699 77.5 14s39.5 22 53.5 38s24.333 34.5 31 55.5s10 43.167 10 66.5v590h81v-453
c0 -21.333 7.33301 -38.166 22 -50.499s33.334 -18.5 56.001 -18.5h11c8.66699 0 14.5 -3.5 17.5 -10.5s4.5 -17.5 4.5 -31.5c0 -16 -1.5 -27.667 -4.5 -35s-8.83301 -11 -17.5 -11h-11zM391.995 618.001l42 -27l-91 -180h-44l-91 180l41 27l72 -146z" />
    <glyph glyph-name="he.thmz" unicode="&#x6c0;" horiz-adv-x="453" arabic-form="isolated" 
d="M174 571c-31.333 0 -53.667 7.00098 -67 21.001s-20 30.667 -20 50c0 16 4.16699 33.167 12.5 51.5s22.833 43.166 43.5 74.499h121l-6 -61h-91c-8.66699 -12.667 -14.667 -22.667 -18 -30s-5 -14 -5 -20c0 -7.33301 2.5 -13.5 7.5 -18.5s14.167 -7.5 27.5 -7.5h192
l-4 -60h-193zM47.999 154.001c0 20 2.66406 38.667 7.99707 56s13.333 35 24 53s24.167 36.5 40.5 55.5s35.5 40.167 57.5 63.5l-46 46l55 59c41.333 -40 75.833 -75 103.5 -105s50 -57 67 -81s29 -46.5 36 -67.5s10.5 -42.833 10.5 -65.5c0 -24 -4.5 -46.333 -13.5 -67
s-21.667 -38.5 -38 -53.5s-35.666 -26.667 -57.999 -35s-46.5 -12.5 -72.5 -12.5s-49.667 3.83301 -71 11.5s-39.666 18.167 -54.999 31.5s-27.166 29.5 -35.499 48.5s-12.5 39.833 -12.5 62.5zM321.996 173.001c0 10.667 -1.50098 21.001 -4.50098 31.001s-8 20.667 -15 32
s-16.667 24 -29 38s-27.833 30.333 -46.5 49c-21.333 -20 -38.166 -37.5 -50.499 -52.5s-22 -28.5 -29 -40.5s-11.5 -22.833 -13.5 -32.5s-3 -19.167 -3 -28.5c0 -22.667 8 -41.834 24 -57.501s39 -23.5 69 -23.5s53.833 8.5 71.5 25.5s26.5 36.833 26.5 59.5z" />
    <glyph glyph-name="he.thmz.goal.fina" unicode="&#x6c2;" horiz-adv-x="480" 
d="M213 123c31.333 0 55.5 6.33301 72.5 19s25.5 28.667 25.5 48v125h-89c-32 0 -55.667 -10 -71 -30s-23 -46 -23 -78s7 -54 21 -66s35.333 -18 64 -18zM391 172c0 -25.333 5 -45.6689 15 -61.002s27.667 -23 53 -23h21c14.667 0 22 -14 22 -42
c0 -30.667 -7.33301 -46 -22 -46h-21c-32 0 -58.667 6.33301 -80 19s-37 35 -47 67c-8 -10 -17.667 -18.167 -29 -24.5s-23 -11.333 -35 -15s-24.167 -6.16699 -36.5 -7.5s-23.833 -2 -34.5 -2c-48 0 -84.833 13.333 -110.5 40s-38.5 67 -38.5 121
c0 24.667 3.5 48.834 10.5 72.501s17.5 44.834 31.5 63.501s31.5 33.667 52.5 45s45.833 17 74.5 17h94v69h80v-293zM370 634.997l-186 -94.001l-24 47l66 30c-18.667 7.33301 -32 18.666 -40 33.999s-12 31 -12 47c0 28 8.83301 50.5 26.5 67.5s40.5 25.5 68.5 25.5h47
l-6 -51h-32c-17.333 0 -30.333 -4.66699 -39 -14s-13 -20.666 -13 -33.999s4.66699 -24.166 14 -32.499s20.333 -12.5 33 -12.5c8 0 18.5 3.16699 31.5 9.5l45.5 22.5z" />
    <glyph glyph-name="vav.tv" unicode="&#x6c6;" horiz-adv-x="442" arabic-form="isolated" 
d="M145 -154c27.333 0 51.334 4.00195 72.001 12.002s37.834 19 51.501 33s24.167 30.333 31.5 49s11.666 38.667 12.999 60h-85c-34.667 0 -63 3.66699 -85 11s-39.333 18 -52 32s-21.5 31.167 -26.5 51.5s-7.5 43.166 -7.5 68.499s3.66699 49.5 11 72.5
s18.166 43.167 32.499 60.5s32 31.166 53 41.499s45.5 15.5 73.5 15.5c22.667 0 44 -3.66699 64 -11s37.667 -18.833 53 -34.5s27.5 -36.167 36.5 -61.5s13.5 -56 13.5 -92v-138c0 -34 -5.5 -66.667 -16.5 -98s-27 -58.833 -48 -82.5s-46.5 -42.5 -76.5 -56.5
s-64 -21 -102 -21h-104l-5 88h103zM136.001 168.002c0 -14 1.49902 -26.168 4.49902 -36.501s8.16699 -18.666 15.5 -24.999s17.5 -11 30.5 -14s29.167 -4.5 48.5 -4.5h80v62c0 42 -8.16699 72.167 -24.5 90.5s-39.166 27.5 -68.499 27.5c-28 0 -49.333 -9 -64 -27
s-22 -42.333 -22 -73zM295 625.001l42 -27l-91 -180h-44l-91 180l41 27l72 -146z" />
    <glyph glyph-name="vav.t2p.fina" unicode="&#x6ca;" horiz-adv-x="482" 
d="M145 -154c27.333 0 51.335 4.00195 72.002 12.002s37.834 19 51.501 33s24.167 30.333 31.5 49s11.666 38.667 12.999 60h-85c-34.667 0 -63 3.66699 -85 11s-39.333 18 -52 32s-21.5 31.167 -26.5 51.5s-7.5 43.166 -7.5 68.499s3.66699 49.5 11 72.5
s18.166 43.167 32.499 60.5s32 31.166 53 41.499s45.5 15.5 73.5 15.5c22.667 0 44 -3.66699 64 -11s37.667 -18.833 53 -34.5s27.5 -36.167 36.5 -61.5s13.5 -56 13.5 -92v-66h88c14.667 0 22 -14 22 -42c0 -30.667 -7.33301 -46 -22 -46h-89
c-2 -32.667 -8.83301 -63.667 -20.5 -93s-27.834 -55 -48.501 -77s-45.667 -39.5 -75 -52.5s-62 -19.5 -98 -19.5h-104l-5 88h103zM136.002 168.002c0 -14 1.49902 -26.168 4.49902 -36.501s8.16699 -18.666 15.5 -24.999s17.5 -11 30.5 -14s29.167 -4.5 48.5 -4.5h80v62
c0 42 -8.16699 72.167 -24.5 90.5s-39.166 27.5 -68.499 27.5c-28 0 -49.333 -9 -64 -27s-22 -42.333 -22 -73zM340.001 459.001h-91v84h91v-84zM206.001 459.001h-91v84h91v-84z" />
    <glyph glyph-name="ye" unicode="&#x6cc;" horiz-adv-x="676" arabic-form="isolated" 
d="M360 -154c27.333 0 52.3301 3.00195 74.9971 9.00195s42.334 14.5 59.001 25.5s29.5 24 38.5 39s13.5 31.5 13.5 49.5c0 16 -4.33301 29.167 -13 39.5s-25.334 15.5 -50.001 15.5h-173v182c0 25.333 3.83301 48.666 11.5 69.999s18.667 39.666 33 54.999s32 27.333 53 36
s44.833 13 71.5 13h115l5 -89h-123c-23.333 0 -43.166 -7 -59.499 -21s-24.5 -35.333 -24.5 -64v-94h105c25.333 0 46.333 -3.33301 63 -10s30 -15.667 40 -27s17 -24.833 21 -40.5s6 -32.834 6 -51.501c0 -31.333 -6.66699 -60.666 -20 -87.999
s-31.5 -51.166 -54.5 -71.499s-50 -36.333 -81 -48s-64.5 -17.5 -100.5 -17.5h-86c-37.333 0 -70.666 6 -99.999 18s-54.166 29.167 -74.499 51.5s-35.833 49.333 -46.5 81s-16 67.5 -16 107.5v177h83v-173c0 -52.667 12.833 -94.834 38.5 -126.501
s68.167 -47.5 127.5 -47.5h63z" />
    <glyph glyph-name="ye.tv.init" unicode="&#x6ce;" horiz-adv-x="299" 
d="M91 88c24.667 0 43.667 6.33398 57 19.001s20 30.667 20 54v128h82v-133c0 -50.667 -13.5 -89.334 -40.5 -116.001s-64.5 -40 -112.5 -40h-97c-8.66699 0 -14.5 3.5 -17.5 10.5s-4.5 17.5 -4.5 31.5c0 16 1.5 27.667 4.5 35s8.83301 11 17.5 11h91zM229 -198.999h-88v84
h88v-84zM93 -198.999h-89v84h89v-84zM199 584.001l42 -27l-91 -180h-44l-91 180l41 27l72 -146z" />
    <glyph glyph-name="ye.tv.medi" unicode="&#x6ce;" horiz-adv-x="340" 
d="M74 88c51.333 0 77 24.333 77 73v128h81v-128c0 -13.333 2.33301 -24.666 7 -33.999s10.667 -16.833 18 -22.5s15.833 -9.83398 25.5 -12.501s19.5 -4 29.5 -4h28c14.667 0 22 -14 22 -42c0 -30.667 -7.33301 -46 -22 -46h-31c-24 -0 -46.5 4.33301 -67.5 13
s-38.5 25.667 -52.5 51c-15.333 -25.333 -32.833 -42.333 -52.5 -51s-40.5 -13 -62.5 -13h-74c-8.66699 0 -14.5 3.5 -17.5 10.5s-4.5 17.5 -4.5 31.5c0 16 1.5 27.667 4.5 35s8.83301 11 17.5 11h74zM280 -199h-88v84h88v-84zM144 -199h-89v84h89v-84zM260 584l42 -27
l-91 -180h-44l-91 180l41 27l72 -146z" />
    <glyph glyph-name="ye.tv.fina" unicode="&#x6ce;" horiz-adv-x="694" 
d="M376 -154c32 0 58.8311 2.6709 80.498 8.00391s39.167 12.5 52.5 21.5s22.833 19.667 28.5 32s8.5 25.166 8.5 38.499c0 15.333 -3.83301 28.166 -11.5 38.499s-21.167 15.5 -40.5 15.5h-156l5 88h351c8.66699 0 14.5 -3.5 17.5 -10.5s4.5 -17.5 4.5 -31.5
c0 -16 -1.5 -27.667 -4.5 -35s-8.83301 -11 -17.5 -11h-91c14.667 -12 22 -33.333 22 -64c0 -18 -4 -37.333 -12 -58s-21.333 -39.834 -40 -57.501s-43 -32.5 -73 -44.5s-67.333 -18 -112 -18h-103c-37.333 0 -70.666 6 -99.999 18s-54.166 29.167 -74.499 51.5
s-35.833 49.333 -46.5 81s-16 67.5 -16 107.5v177h83v-173c0 -52.667 12.833 -94.834 38.5 -126.501s68.167 -47.5 127.5 -47.5h79zM367.998 406.004l42 -27l-91 -180h-44l-91 180l41 27l72 -146z" />
    <glyph glyph-name="ae.fina" unicode="&#x6d5;" horiz-adv-x="480" 
d="M213 123c31.333 0 55.5 6.33301 72.5 19s25.5 28.667 25.5 48v125h-89c-32 0 -55.667 -10 -71 -30s-23 -46 -23 -78s7 -54 21 -66s35.333 -18 64 -18zM391 172c0 -25.333 5 -45.6689 15 -61.002s27.667 -23 53 -23h21c14.667 0 22 -14 22 -42
c0 -30.667 -7.33301 -46 -22 -46h-21c-32 0 -58.667 6.33301 -80 19s-37 35 -47 67c-8 -10 -17.667 -18.167 -29 -24.5s-23 -11.333 -35 -15s-24.167 -6.16699 -36.5 -7.5s-23.833 -2 -34.5 -2c-48 0 -84.833 13.333 -110.5 40s-38.5 67 -38.5 121
c0 24.667 3.5 48.834 10.5 72.501s17.5 44.834 31.5 63.501s31.5 33.667 52.5 45s45.833 17 74.5 17h94v69h80v-293z" />
    <glyph glyph-name="alef.vasla.fina" unicode="&#x671;" horiz-adv-x="231" arabic-form="final" 
d="M196 0c-18 0 -35.332 2.49902 -51.999 7.49902s-31.334 13.5 -44.001 25.5s-22.667 27.833 -30 47.5s-11 44.167 -11 73.5v303h83v-285c0 -25.333 5.5 -45.666 16.5 -60.999s28.167 -23 51.5 -23h21c8.66699 0 14.5 -3.5 17.5 -10.5s4.5 -17.5 4.5 -31.5
c0 -16 -1.5 -27.667 -4.5 -35s-8.83301 -11 -17.5 -11h-35zM26.001 589.999c25.333 50.667 49.501 86.333 72.501 107s46.833 31 71.5 31c22 0 41 -8.5 57 -25.5s24 -38.833 24 -65.5c0 -10 -1.83301 -20.833 -5.5 -32.5s-9.66699 -22.5 -18 -32.5
s-19.333 -18.167 -33 -24.5s-30.834 -9.5 -51.501 -9.5h-132l-28 25v94l43 5v-72zM147.002 587.998c17.333 0 31.5 3.83203 42.5 11.499s16.5 19.834 16.5 36.501c0 11.333 -3.83301 21.333 -11.5 30s-18.167 13 -31.5 13c-15.333 0 -30.5 -8 -45.5 -24
s-30.833 -38.333 -47.5 -67h77z" />
    <glyph glyph-name="pe.fina" unicode="&#x67e;" horiz-adv-x="806" arabic-form="final" 
d="M550 88c51.333 0 77 24.333 77 73v128h81v-128c0 -13.333 2.33301 -24.666 7 -33.999s10.667 -16.833 18 -22.5s16 -9.83398 26 -12.501s20 -4 30 -4h17c8.66699 0 14.5 -3.5 17.5 -10.5s4.5 -17.5 4.5 -31.5c0 -16 -1.5 -27.667 -4.5 -35s-8.83301 -11 -17.5 -11h-21
c-24 -0 -46.5 4.33301 -67.5 13s-38.5 25.667 -52.5 51c-15.333 -25.333 -32.833 -42.333 -52.5 -51s-40.5 -13 -62.5 -13h-348c-27.333 0 -50.833 4.16699 -70.5 12.5s-35.667 19.5 -48 33.5s-21.333 30.333 -27 49s-8.5 38.334 -8.5 59.001v139h83v-118
c0 -26.667 6.16699 -47.834 18.5 -63.501s35.833 -23.5 70.5 -23.5h330zM427 -327h-91v82h91v-82zM494 -199h-91v84h91v-84zM360 -199h-91v84h91v-84z" />
    <glyph glyph-name="pe.init" unicode="&#x67e;" horiz-adv-x="299" arabic-form="initial" 
d="M91 88c24.667 0 43.667 6.33398 57 19.001s20 30.667 20 54v128h82v-133c0 -50.667 -13.5 -89.334 -40.5 -116.001s-64.5 -40 -112.5 -40h-97c-8.66699 0 -14.5 3.5 -17.5 10.5s-4.5 17.5 -4.5 31.5c0 16 1.5 27.667 4.5 35s8.83301 11 17.5 11h91zM165 -326.999h-91v82
h91v-82zM232 -198.999h-91v84h91v-84zM98 -198.999h-91v84h91v-84z" />
    <glyph glyph-name="pe.medi" unicode="&#x67e;" horiz-adv-x="340" arabic-form="medial" 
d="M74 88c51.333 0 77 24.333 77 73v128h81v-128c0 -13.333 2.33301 -24.666 7 -33.999s10.667 -16.833 18 -22.5s15.833 -9.83398 25.5 -12.501s19.5 -4 29.5 -4h28c14.667 0 22 -14 22 -42c0 -30.667 -7.33301 -46 -22 -46h-31c-24 -0 -46.5 4.33301 -67.5 13
s-38.5 25.667 -52.5 51c-15.333 -25.333 -32.833 -42.333 -52.5 -51s-40.5 -13 -62.5 -13h-74c-8.66699 0 -14.5 3.5 -17.5 10.5s-4.5 17.5 -4.5 31.5c0 16 1.5 27.667 4.5 35s8.83301 11 17.5 11h74zM201 -327h-91v82h91v-82zM268 -199h-91v84h91v-84zM134 -199h-91v84h91
v-84z" />
    <glyph glyph-name="veh.fina" unicode="&#x6a4;" horiz-adv-x="876" arabic-form="final" 
d="M619 316c-28 0 -50.499 -9.16699 -67.499 -27.5s-25.5 -40.833 -25.5 -67.5c0 -14 2.83301 -27.167 8.5 -39.5s13.334 -23.5 23.001 -33.5s20.5 -18.833 32.5 -26.5s24 -14.167 36 -19.5c10 5.33301 20.167 11.833 30.5 19.5s19.666 16.5 27.999 26.5
s15.166 20.833 20.499 32.5s8 24.5 8 38.5c0 28.667 -8.66699 52 -26 70s-40 27 -68 27zM626.001 404c27.333 0 51.333 -4.83301 72 -14.5s37.834 -22.334 51.501 -38.001s24 -33.334 31 -53.001s10.5 -39.5 10.5 -59.5c0 -32 -6.5 -60 -19.5 -84s-32.5 -46.333 -58.5 -67
h163c14.667 0 22 -14 22 -42c0 -30.667 -7.33301 -46 -22 -46h-107c-30.667 0 -58 1 -82 3s-42.667 6.33301 -56 13c-9.33301 -4 -20.833 -7.16699 -34.5 -9.5s-27.667 -4 -42 -5s-28.333 -1.5 -42 -1.5h-35.5h-275c-27.333 0 -50.833 4.16699 -70.5 12.5
s-35.667 19.5 -48 33.5s-21.333 30.333 -27 49s-8.5 38.334 -8.5 59.001v139h83v-118c0 -26.667 6.16699 -47.834 18.5 -63.501s35.833 -23.5 70.5 -23.5h312c-28 20 -49 41.833 -63 65.5s-21 50.167 -21 79.5c0 22 4.16699 43.333 12.5 64s20.166 38.834 35.499 54.501
s34 28.334 56 38.001s46.667 14.5 74 14.5zM665.001 621h-91v83h91v-83zM732.001 492h-91v84h91v-84zM598.001 492h-91v84h91v-84z" />
    <glyph glyph-name="veh.init" unicode="&#x6a4;" horiz-adv-x="483" arabic-form="initial" 
d="M132 88c20 0 36.001 -0.165039 48.001 -0.498047s25.667 -1.5 41 -3.5c-31.333 11.333 -56 22.833 -74 34.5s-31.667 24 -41 37s-15.333 27.167 -18 42.5s-4 32.666 -4 51.999c0 18 3.5 36.667 10.5 56s17.5 36.666 31.5 51.999s31.5 28 52.5 38s45.167 15 72.5 15
c25.333 0 48.5 -3.33301 69.5 -10s39 -17.667 54 -33s26.667 -35.5 35 -60.5s12.5 -55.5 12.5 -91.5v-48c0 -52 -15.333 -93 -46 -123s-79.334 -45 -146.001 -45h-230c-8.66699 0 -14.5 3.5 -17.5 10.5s-4.5 17.5 -4.5 31.5c0 16 1.5 27.667 4.5 35s8.83301 11 17.5 11h132z
M248.001 323.002c-14.667 0 -27.498 -2.49902 -38.498 -7.49902s-20.333 -11.667 -28 -20s-13.334 -17.666 -17.001 -27.999s-5.5 -20.5 -5.5 -30.5c0 -11.333 1.16699 -21.833 3.5 -31.5s8.83301 -19.5 19.5 -29.5s26.667 -20.5 48 -31.5s50.666 -23.5 87.999 -37.5
c8 7.33301 14.167 17.166 18.5 29.499s6.5 26.166 6.5 41.499v30c0 35.333 -7 63.333 -21 84s-38.667 31 -74 31zM296.003 632.003h-91v83h91v-83zM363.003 503.003h-91v84h91v-84zM229.003 503.003h-91v84h91v-84z" />
    <glyph glyph-name="veh.medi" unicode="&#x6a4;" horiz-adv-x="512" arabic-form="medial" 
d="M169 88c-28 20 -49.165 41.833 -63.498 65.5s-21.5 50.167 -21.5 79.5c0 22 4.16699 43.333 12.5 64s20.166 38.834 35.499 54.501s34.166 28.334 56.499 38.001s47.166 14.5 74.499 14.5s51.333 -4.83301 72 -14.5s37.834 -22.334 51.501 -38.001s24 -33.334 31 -53.001
s10.5 -39.5 10.5 -59.5c0 -32 -6.5 -60 -19.5 -84s-32.5 -46.333 -58.5 -67h162c8 0 13.5 -3.5 16.5 -10.5s4.5 -17.5 4.5 -31.5c0 -16 -1.5 -27.667 -4.5 -35s-8.5 -11 -16.5 -11h-106c-30.667 0 -58 1 -82 3s-42.667 6.33301 -56 13
c-9.33301 -4 -20.833 -7.16699 -34.5 -9.5s-27.667 -4 -42 -5s-28.333 -1.5 -42 -1.5h-35.5h-114c-8.66699 0 -14.5 3.5 -17.5 10.5s-4.5 17.5 -4.5 31.5c0 16 1.5 27.667 4.5 35s8.83301 11 17.5 11h169zM256.002 316c-28.667 0 -51.332 -9.16699 -67.999 -27.5
s-25 -40.833 -25 -67.5c0 -14 2.83301 -27.167 8.5 -39.5s13.167 -23.5 22.5 -33.5s20 -18.833 32 -26.5s24 -14.167 36 -19.5c10.667 5.33301 21.167 11.833 31.5 19.5s19.666 16.5 27.999 26.5s15 20.833 20 32.5s7.5 24.5 7.5 38.5c0 28.667 -8.5 52 -25.5 70
s-39.5 27 -67.5 27zM307.004 621h-91v83h91v-83zM374.004 492h-91v84h91v-84zM240.004 492h-91v84h91v-84z" />
    <glyph glyph-name="che.fina" unicode="&#x686;" horiz-adv-x="566" arabic-form="final" 
d="M397 222c-4.66699 11.333 -9.5 21.5 -14.5 30.5s-11.167 16.5 -18.5 22.5s-16.666 10.5 -27.999 13.5s-25.333 4.5 -42 4.5h-209l5 88h216c18 0 35.833 -2 53.5 -6s34.5 -12.833 50.5 -26.5s30.833 -33.334 44.5 -59.001s25.5 -60.5 35.5 -104.5l-64 -38
c11.333 -22.667 23.666 -38.167 36.999 -46.5s30.666 -12.5 51.999 -12.5h51c8.66699 0 14.5 -3.5 17.5 -10.5s4.5 -17.5 4.5 -31.5c0 -16 -1.5 -27.667 -4.5 -35s-8.83301 -11 -17.5 -11h-57c-22 0 -40.667 2.83301 -56 8.5s-28.333 13.5 -39 23.5s-19.667 22 -27 36
s-14 29.333 -20 46l-76 -45c-31.333 -18 -57.666 -35.667 -78.999 -53s-38.5 -34.5 -51.5 -51.5s-22.167 -34 -27.5 -51s-8 -34.5 -8 -52.5c0 -50 13.833 -88.833 41.5 -116.5s72.834 -41.5 135.501 -41.5h185l-5 -88h-182c-46 0 -85.333 6.33301 -118 19
s-59.167 29.667 -79.5 51s-35.333 46.5 -45 75.5s-14.5 59.833 -14.5 92.5c0 28.667 3.5 55.334 10.5 80.001s18.667 48.5 35 71.5s37.666 45.333 63.999 67s58.833 43.5 97.5 65.5zM360.576 -230.024h-75.9873v68.4717h75.9873v-68.4717zM416.522 -123.142h-75.9873
v70.1416h75.9873v-70.1416zM304.63 -123.142h-75.9873v70.1416h75.9873v-70.1416z" />
    <glyph glyph-name="che.init" unicode="&#x686;" horiz-adv-x="547" arabic-form="initial" 
d="M288 57c-17.333 -10.667 -34.335 -19.668 -51.002 -27.001s-34.5 -13.166 -53.5 -17.499s-39.833 -7.5 -62.5 -9.5s-49 -3 -79 -3h-42c-8.66699 0 -14.5 3.5 -17.5 10.5s-4.5 17.5 -4.5 31.5c0 16 1.5 27.667 4.5 35s8.83301 11 17.5 11h45
c25.333 0 47.833 0.666992 67.5 2s38 3.66602 55 6.99902s32.833 7.83301 47.5 13.5s29.667 12.834 45 21.501l149 86c-5.33301 12 -10.666 22.5 -15.999 31.5s-11.833 16.833 -19.5 23.5s-17.167 11.667 -28.5 15s-25.666 5 -42.999 5h-218l5 88h226
c18 0 36 -2.33301 54 -7s35.167 -14 51.5 -28s31.5 -34 45.5 -60s26 -60.333 36 -103zM321.998 -327.001h-91v82h91v-82zM388.998 -199.001h-91v84h91v-84zM254.998 -199.001h-91v84h91v-84z" />
    <glyph glyph-name="che.medi" unicode="&#x686;" horiz-adv-x="585" arabic-form="medial" 
d="M436 144c10.667 -21.333 22.665 -36.001 35.998 -44.001s30.666 -12 51.999 -12h61c8.66699 0 14.5 -3.5 17.5 -10.5s4.5 -17.5 4.5 -31.5c0 -16 -1.5 -27.667 -4.5 -35s-8.83301 -11 -17.5 -11h-67c-22 0 -40.667 2.83301 -56 8.5s-28.333 13.334 -39 23.001
s-19.667 21.167 -27 34.5s-13.666 28 -18.999 44l-89 -53c-17.333 -10 -34.333 -18.667 -51 -26s-34.5 -13.333 -53.5 -18s-39.833 -8 -62.5 -10s-49 -3 -79 -3h-42c-8.66699 0 -14.5 3.5 -17.5 10.5s-4.5 17.5 -4.5 31.5c0 16 1.5 27.667 4.5 35s8.83301 11 17.5 11h45
c25.333 0 47.833 0.666992 67.5 2s38 3.66602 55 6.99902s32.833 7.83301 47.5 13.5s29.667 12.834 45 21.501l149 86c-5.33301 12 -10.666 22.5 -15.999 31.5s-11.833 16.833 -19.5 23.5s-17.167 11.667 -28.5 15s-25.666 5 -42.999 5h-218l5 88h226
c18 0 36 -2.33301 54 -7s35.167 -14 51.5 -28s31.5 -34 45.5 -60s26 -60.333 36 -103zM321.998 -327.001h-91v82h91v-82zM388.998 -199.001h-91v84h91v-84zM254.998 -199.001h-91v84h91v-84z" />
    <glyph glyph-name="je.fina" unicode="&#x698;" horiz-adv-x="254" arabic-form="final" 
d="M162 16c0 -37.333 -6.00293 -71.667 -18.0029 -103s-28.5 -58.5 -49.5 -81.5s-46 -41 -75 -54s-60.5 -19.5 -94.5 -19.5h-60l-6 88h46c32 0 59.167 4.66699 81.5 14s40.833 22 55.5 38s25.334 34.167 32.001 54.5s10 41.5 10 63.5v273h81v-132
c0 -21.333 7.33301 -38.166 22 -50.499s33.334 -18.5 56.001 -18.5h11c8.66699 0 14.5 -3.5 17.5 -10.5s4.5 -17.5 4.5 -31.5c0 -16 -1.5 -27.667 -4.5 -35s-8.83301 -11 -17.5 -11h-11c-15.333 0 -30.166 2.66699 -44.499 8s-26.5 14.666 -36.5 27.999v-20z
M155.997 539.999h-91v83h91v-83zM222.997 410.999h-91v84h91v-84zM88.9971 410.999h-91v84h91v-84z" />
    <glyph glyph-name="kaf.fina" unicode="&#x6a9;" horiz-adv-x="927" arabic-form="final" 
d="M395 421l0.000976562 90.9961l335 128l18 -81l-273 -104l171 -170l82 -81.5c22.667 -22.333 42.5 -40.833 59.5 -55.5s31.5 -26 43.5 -34s23 -14 33 -18s20 -6.33301 30 -7s21 -1 33 -1c8.66699 0 14.5 -3.5 17.5 -10.5s4.5 -17.5 4.5 -31.5c0 -16 -1.5 -27.667 -4.5 -35
s-8.83301 -11 -17.5 -11c-19.333 0 -36.666 1.33301 -51.999 4s-30.833 8 -46.5 16s-32.334 19.333 -50.001 34s-38.834 34 -63.501 58c0 -20 -3.5 -37 -10.5 -51s-16.5 -25.5 -28.5 -34.5s-26 -15.667 -42 -20s-33.333 -6.5 -52 -6.5h-380
c-27.333 0 -50.833 4.16699 -70.5 12.5s-35.667 19.5 -48 33.5s-21.333 30.333 -27 49s-8.5 38.334 -8.5 59.001v139h83v-118c0 -27.333 6.33301 -48.666 19 -63.999s36 -23 70 -23h353c24 0 40.667 5 50 15s14 22.333 14 37c0 10.667 -2 21.834 -6 33.501
s-13.333 24.834 -28 39.501z" />
    <glyph glyph-name="kaf.init" unicode="&#x6a9;" horiz-adv-x="465" arabic-form="initial" 
d="M256 88c25.333 0 42.502 4.99707 51.502 14.9971s13.5 22.333 13.5 37c0 10.667 -2 21.834 -6 33.501s-13.667 24.834 -29 39.501l-207 208v91l335 128l17 -81l-273 -104l171 -170c16.667 -16.667 30.167 -31.667 40.5 -45s18.5 -26.166 24.5 -38.499s10 -24.5 12 -36.5
s3 -24.333 3 -37c0 -22.667 -3.66699 -42 -11 -58s-17.333 -29.167 -30 -39.5s-27.834 -18 -45.501 -23s-36.834 -7.5 -57.501 -7.5h-265c-8.66699 0 -14.5 3.5 -17.5 10.5s-4.5 17.5 -4.5 31.5c0 16 1.5 27.667 4.5 35s8.83301 11 17.5 11h256z" />
    <glyph glyph-name="kaf.medi" unicode="&#x6a9;" horiz-adv-x="612" arabic-form="medial" 
d="M256 88c25.333 0 42.5 4.99902 51.5 14.999s13.5 22.333 13.5 37c0 10.667 -2 21.834 -6 33.501s-13.667 24.834 -29 39.501l-207 208v91l335 128l17 -81l-273 -104l171 -170l115 -112c28.667 -26.667 52.334 -46.334 71.001 -59.001s34.834 -20.167 48.501 -22.5
s29.834 -3.5 48.501 -3.5c14.667 0 22 -14 22 -42c0 -30.667 -7.33301 -46 -22 -46c-20 -0 -37.833 1.33301 -53.5 4s-31.334 8 -47.001 16s-32.334 19.333 -50.001 34s-38.834 34 -63.501 58c0 -20 -3.5 -37 -10.5 -51s-16.5 -25.5 -28.5 -34.5s-26 -15.667 -42 -20
s-33.333 -6.5 -52 -6.5h-265c-8.66699 0 -14.5 3.5 -17.5 10.5s-4.5 17.5 -4.5 31.5c0 16 1.5 27.667 4.5 35s8.83301 11 17.5 11h256z" />
    <glyph glyph-name="gaf.fina" unicode="&#x6af;" horiz-adv-x="927" arabic-form="final" 
d="M389 657l313 120l12 -61l-321 -123zM395 421l0.000976562 90.9961l335 128l18 -81l-273 -104l171 -170l82 -81.5c22.667 -22.333 42.5 -40.833 59.5 -55.5s31.5 -26 43.5 -34s23 -14 33 -18s20 -6.33301 30 -7s21 -1 33 -1c8.66699 0 14.5 -3.5 17.5 -10.5
s4.5 -17.5 4.5 -31.5c0 -16 -1.5 -27.667 -4.5 -35s-8.83301 -11 -17.5 -11c-19.333 0 -36.666 1.33301 -51.999 4s-30.833 8 -46.5 16s-32.334 19.333 -50.001 34s-38.834 34 -63.501 58c0 -20 -3.5 -37 -10.5 -51s-16.5 -25.5 -28.5 -34.5s-26 -15.667 -42 -20
s-33.333 -6.5 -52 -6.5h-380c-27.333 0 -50.833 4.16699 -70.5 12.5s-35.667 19.5 -48 33.5s-21.333 30.333 -27 49s-8.5 38.334 -8.5 59.001v139h83v-118c0 -27.333 6.33301 -48.666 19 -63.999s36 -23 70 -23h353c24 0 40.667 5 50 15s14 22.333 14 37
c0 10.667 -2 21.834 -6 33.501s-13.333 24.834 -28 39.501z" />
    <glyph glyph-name="gaf.init" unicode="&#x6af;" horiz-adv-x="465" arabic-form="initial" 
d="M74 657l312 120l11 -61l-321 -123zM256 88c25.333 0 42.502 4.99707 51.502 14.9971s13.5 22.333 13.5 37c0 10.667 -2 21.834 -6 33.501s-13.667 24.834 -29 39.501l-207 208v91l335 128l17 -81l-273 -104l171 -170c16.667 -16.667 30.167 -31.667 40.5 -45
s18.5 -26.166 24.5 -38.499s10 -24.5 12 -36.5s3 -24.333 3 -37c0 -22.667 -3.66699 -42 -11 -58s-17.333 -29.167 -30 -39.5s-27.834 -18 -45.501 -23s-36.834 -7.5 -57.501 -7.5h-265c-8.66699 0 -14.5 3.5 -17.5 10.5s-4.5 17.5 -4.5 31.5c0 16 1.5 27.667 4.5 35
s8.83301 11 17.5 11h256z" />
    <glyph glyph-name="gaf.medi" unicode="&#x6af;" horiz-adv-x="612" arabic-form="medial" 
d="M74 657l312 120l11 -61l-321 -123zM256 88c25.333 0 42.5 4.99902 51.5 14.999s13.5 22.333 13.5 37c0 10.667 -2 21.834 -6 33.501s-13.667 24.834 -29 39.501l-207 208v91l335 128l17 -81l-273 -104l171 -170l115 -112c28.667 -26.667 52.334 -46.334 71.001 -59.001
s34.834 -20.167 48.501 -22.5s29.834 -3.5 48.501 -3.5c14.667 0 22 -14 22 -42c0 -30.667 -7.33301 -46 -22 -46c-20 -0 -37.833 1.33301 -53.5 4s-31.334 8 -47.001 16s-32.334 19.333 -50.001 34s-38.834 34 -63.501 58c0 -20 -3.5 -37 -10.5 -51
s-16.5 -25.5 -28.5 -34.5s-26 -15.667 -42 -20s-33.333 -6.5 -52 -6.5h-265c-8.66699 0 -14.5 3.5 -17.5 10.5s-4.5 17.5 -4.5 31.5c0 16 1.5 27.667 4.5 35s8.83301 11 17.5 11h256z" />
    <glyph glyph-name="he.thmz.fina" unicode="&#x6c0;" horiz-adv-x="480" arabic-form="final" 
d="M188 504c-30.667 0 -52.666 7.16895 -65.999 21.502s-20 31.166 -20 50.499c0 15.333 4.16699 32.166 12.5 50.499s22.5 43.5 42.5 75.5h122l-5 -62h-91c-9.33301 -12 -15.833 -21.667 -19.5 -29s-5.5 -14 -5.5 -20c0 -7.33301 2.66699 -13.5 8 -18.5
s14.666 -7.5 27.999 -7.5h192l-3 -61h-195zM213.001 123.002c31.333 0 55.5 6.33301 72.5 19s25.5 28.667 25.5 48v125h-89c-32 0 -55.667 -10 -71 -30s-23 -46 -23 -78s7 -54 21 -66s35.333 -18 64 -18zM391.001 172.002c0 -25.333 5 -45.6689 15 -61.002
s27.667 -23 53 -23h21c14.667 0 22 -14 22 -42c0 -30.667 -7.33301 -46 -22 -46h-21c-32 -0 -58.667 6.33301 -80 19s-37 35 -47 67c-8 -10 -17.667 -18.167 -29 -24.5s-23 -11.333 -35 -15s-24.167 -6.16699 -36.5 -7.5s-23.833 -2 -34.5 -2
c-48 0 -84.833 13.333 -110.5 40s-38.5 67 -38.5 121c0 24.667 3.5 48.834 10.5 72.501s17.5 44.834 31.5 63.501s31.5 33.667 52.5 45s45.833 17 74.5 17h174v-224z" />
    <glyph glyph-name="he.dochashmi.fina" unicode="&#x6be;" horiz-adv-x="632" arabic-form="final" 
d="M430 209c0 24.667 -6.50098 45.334 -19.501 62.001s-32.5 25 -58.5 25c-28 0 -49.5 -10.167 -64.5 -30.5s-22.5 -49.5 -22.5 -87.5v-245c0 -30 5.66699 -51.333 17 -64s26.666 -20.334 45.999 -23.001l90 115c24 30 44.667 53.5 62 70.5s33.5 29.667 48.5 38
s30.5 13.5 46.5 15.5s35 3 57 3c8.66699 0 14.5 -3.5 17.5 -10.5s4.5 -17.5 4.5 -31.5c0 -16 -1.5 -27.667 -4.5 -35s-8.83301 -11 -17.5 -11c-18 -0 -34 -0.666992 -48 -2s-27.667 -5.5 -41 -12.5s-27.5 -18 -42.5 -33s-32.833 -36.167 -53.5 -63.5l-98 -131
c-22.667 0 -43.834 3.33301 -63.501 10s-36.667 16.834 -51 30.501s-25.5 31 -33.5 52s-12 46.167 -12 75.5v248c0 24 2.5 48.333 7.5 73s13.833 47 26.5 67s29.667 36.167 51 48.5s48.333 18.5 81 18.5c24.667 0 46.5 -4.16699 65.5 -12.5s34.833 -19.5 47.5 -33.5
s22.167 -30.667 28.5 -50s9.5 -40 9.5 -62c0 -44 -13.167 -83.333 -39.5 -118s-60.666 -66 -102.999 -94s-90.666 -53.667 -144.999 -77l-165.5 -68l-27 79c54.667 19.333 106.334 39.333 155.001 60s91.5 42.167 128.5 64.5s66.333 45.166 88 68.499s32.5 47 32.5 71z" />
    <glyph glyph-name="he.dochashmi.init" unicode="&#x6be;" horiz-adv-x="707" arabic-form="initial" 
d="M253 310c-28 0 -50.666 -9.16602 -67.999 -27.499s-26 -40.5 -26 -66.5c0 -14.667 3 -28 9 -40s13.667 -22.667 23 -32s20.166 -17.833 32.499 -25.5s24.5 -14.167 36.5 -19.5c10 5.33301 20 11.666 30 18.999s19.167 15.833 27.5 25.5s15 20.167 20 31.5s7.5 24 7.5 38
c0 30 -8.33301 53.667 -25 71s-39 26 -67 26zM0.000976562 0.000976562c-8.66699 0 -14.4941 3.50195 -17.4941 10.502s-4.5 17.5 -4.5 31.5c0 16 1.5 27.667 4.5 35s8.83301 11 17.5 11h169c-26 18 -46.667 38.333 -62 61s-23 49 -23 79c0 22 4 43.167 12 63.5
s19.5 38.166 34.5 53.499s33.5 27.666 55.5 36.999s46.667 14 74 14s51.166 -4.66699 71.499 -14s37.166 -21.833 50.499 -37.5s23.166 -33.167 29.499 -52.5s9.5 -39 9.5 -59c0 -30 -6.5 -56.5 -19.5 -79.5s-32.5 -44.833 -58.5 -65.5h161
c21.333 0 37.666 4.83301 48.999 14.5s17 22.5 17 38.5c0 15.333 -8 33 -24 53l-175 206l61 58l176 -212c19.333 -22 32.666 -42.667 39.999 -62s11 -38.333 11 -57c0 -36 -12.833 -66.167 -38.5 -90.5s-62.834 -36.5 -111.501 -36.5h-110c-30 0 -57 1 -81 3
s-42.667 6.33301 -56 13c-10 -4 -21.833 -7.16699 -35.5 -9.5s-27.667 -4 -42 -5s-28.333 -1.5 -42 -1.5h-34.5h-108z" />
    <glyph glyph-name="he.dochashmi.medi" unicode="&#x6be;" horiz-adv-x="532" arabic-form="medial" 
d="M89 88v86c0 24 2.5 48.333 7.5 73s13.667 47 26 67s29.166 36.167 50.499 48.5s48.333 18.5 81 18.5c24.667 0 46.5 -4.16699 65.5 -12.5s34.833 -19.5 47.5 -33.5s22.334 -30.667 29.001 -50s10 -40 10 -62c0 -31.333 -6.5 -59.833 -19.5 -85.5
s-30.5 -48.167 -52.5 -67.5s-47.5 -34.833 -76.5 -46.5s-59.833 -18.5 -92.5 -20.5v-70c0 -30 5.5 -51.333 16.5 -64s26.167 -20.334 45.5 -23.001l90 115c24 30 44.667 53.5 62 70.5s33.666 29.667 48.999 38s31 13.5 47 15.5s35 3 57 3c8.66699 0 14.5 -3.5 17.5 -10.5
s4.5 -17.5 4.5 -31.5c0 -16 -1.5 -27.667 -4.5 -35s-8.83301 -11 -17.5 -11c-18 0 -34 -0.666992 -48 -2s-27.833 -5.5 -41.5 -12.5s-28 -18 -43 -33s-32.833 -36.167 -53.5 -63.5l-98 -131c-22.667 0 -43.667 3.33301 -63 10s-36.166 16.834 -50.499 30.501
s-25.5 31 -33.5 52s-12 46.167 -12 75.5v74h-89c-8.66699 0 -14.5 3.5 -17.5 10.5s-4.5 17.5 -4.5 31.5c0 16 1.5 27.667 4.5 35s8.83301 11 17.5 11h89zM165 85c28 1.33301 52.5 5.83105 73.5 13.498s38.167 17.334 51.5 29.001s23.333 24.5 30 38.5s10 28.333 10 43
c0 24.667 -6.5 45.334 -19.5 62.001s-32.833 25 -59.5 25c-28 0 -49.333 -10.167 -64 -30.5s-22 -49.5 -22 -87.5v-93z" />
    <glyph glyph-name="vav.tv.fina" unicode="&#x6c6;" horiz-adv-x="482" arabic-form="final" 
d="M145 -154c27.333 0 51.335 4.00195 72.002 12.002s37.834 19 51.501 33s24.167 30.333 31.5 49s11.666 38.667 12.999 60h-85c-34.667 0 -63 3.66699 -85 11s-39.333 18 -52 32s-21.5 31.167 -26.5 51.5s-7.5 43.166 -7.5 68.499s3.66699 49.5 11 72.5
s18.166 43.167 32.499 60.5s32 31.166 53 41.499s45.5 15.5 73.5 15.5c22.667 0 44 -3.66699 64 -11s37.667 -18.833 53 -34.5s27.5 -36.167 36.5 -61.5s13.5 -56 13.5 -92v-66h88c14.667 0 22 -14 22 -42c0 -30.667 -7.33301 -46 -22 -46h-89
c-2 -32.667 -8.83301 -63.667 -20.5 -93s-27.834 -55 -48.501 -77s-45.667 -39.5 -75 -52.5s-62 -19.5 -98 -19.5h-104l-5 88h103zM136.002 168.002c0 -14 1.49902 -26.168 4.49902 -36.501s8.16699 -18.666 15.5 -24.999s17.5 -11 30.5 -14s29.167 -4.5 48.5 -4.5h80v62
c0 42 -8.16699 72.167 -24.5 90.5s-39.166 27.5 -68.499 27.5c-28 0 -49.333 -9 -64 -27s-22 -42.333 -22 -73zM295.001 625.001l42 -27l-91 -180h-44l-91 180l41 27l72 -146z" />
    <glyph glyph-name="alef.maksura.init" unicode="&#x649;" horiz-adv-x="299" arabic-form="initial" 
d="M91 88c24.667 0 43.667 6.33398 57 19.001s20 30.667 20 54v128h82v-133c0 -50.667 -13.5 -89.334 -40.5 -116.001s-64.5 -40 -112.5 -40h-97c-8.66699 0 -14.5 3.5 -17.5 10.5s-4.5 17.5 -4.5 31.5c0 16 1.5 27.667 4.5 35s8.83301 11 17.5 11h91z" />
    <glyph glyph-name="alef.maksura.medi" unicode="&#x649;" horiz-adv-x="340" arabic-form="medial" 
d="M74 88c51.333 0 77 24.333 77 73v128h81v-128c0 -13.333 2.33301 -24.666 7 -33.999s10.667 -16.833 18 -22.5s15.833 -9.83398 25.5 -12.501s19.5 -4 29.5 -4h28c14.667 0 22 -14 22 -42c0 -30.667 -7.33301 -46 -22 -46h-31c-24 -0 -46.5 4.33301 -67.5 13
s-38.5 25.667 -52.5 51c-15.333 -25.333 -32.833 -42.333 -52.5 -51s-40.5 -13 -62.5 -13h-74c-8.66699 0 -14.5 3.5 -17.5 10.5s-4.5 17.5 -4.5 31.5c0 16 1.5 27.667 4.5 35s8.83301 11 17.5 11h74z" />
    <glyph glyph-name="ye.fina" unicode="&#x6cc;" horiz-adv-x="694" arabic-form="final" 
d="M376 -154c32 0 58.8311 2.6709 80.498 8.00391s39.167 12.5 52.5 21.5s22.833 19.667 28.5 32s8.5 25.166 8.5 38.499c0 15.333 -3.83301 28.166 -11.5 38.499s-21.167 15.5 -40.5 15.5h-156l5 88h351c8.66699 0 14.5 -3.5 17.5 -10.5s4.5 -17.5 4.5 -31.5
c0 -16 -1.5 -27.667 -4.5 -35s-8.83301 -11 -17.5 -11h-91c14.667 -12 22 -33.333 22 -64c0 -18 -4 -37.333 -12 -58s-21.333 -39.834 -40 -57.501s-43 -32.5 -73 -44.5s-67.333 -18 -112 -18h-103c-37.333 0 -70.666 6 -99.999 18s-54.166 29.167 -74.499 51.5
s-35.833 49.333 -46.5 81s-16 67.5 -16 107.5v177h83v-173c0 -52.667 12.833 -94.834 38.5 -126.501s68.167 -47.5 127.5 -47.5h79z" />
    <glyph glyph-name="ye.init" unicode="&#x6cc;" horiz-adv-x="299" arabic-form="initial" 
d="M91 88c24.667 0 43.667 6.33398 57 19.001s20 30.667 20 54v128h82v-133c0 -50.667 -13.5 -89.334 -40.5 -116.001s-64.5 -40 -112.5 -40h-97c-8.66699 0 -14.5 3.5 -17.5 10.5s-4.5 17.5 -4.5 31.5c0 16 1.5 27.667 4.5 35s8.83301 11 17.5 11h91zM229 -198.999h-88v84
h88v-84zM93 -198.999h-89v84h89v-84z" />
    <glyph glyph-name="ye.medi" unicode="&#x6cc;" horiz-adv-x="340" arabic-form="medial" 
d="M74 88c51.333 0 77 24.333 77 73v128h81v-128c0 -13.333 2.33301 -24.666 7 -33.999s10.667 -16.833 18 -22.5s15.833 -9.83398 25.5 -12.501s19.5 -4 29.5 -4h28c14.667 0 22 -14 22 -42c0 -30.667 -7.33301 -46 -22 -46h-31c-24 -0 -46.5 4.33301 -67.5 13
s-38.5 25.667 -52.5 51c-15.333 -25.333 -32.833 -42.333 -52.5 -51s-40.5 -13 -62.5 -13h-74c-8.66699 0 -14.5 3.5 -17.5 10.5s-4.5 17.5 -4.5 31.5c0 16 1.5 27.667 4.5 35s8.83301 11 17.5 11h74zM280 -199h-88v84h88v-84zM144 -199h-89v84h89v-84z" />
    <glyph glyph-name=".shdd.on" unicode="&#xfc5e;" arabic-form="isolated" 
d="M11 316c-14 8.66699 -24.667 19.833 -32 33.5s-11 28.167 -11 43.5c0 26 9 48.167 27 66.5s40.333 27.5 67 27.5c28 0 50.5 -8.83301 67.5 -26.5s25.5 -40.5 25.5 -68.5c0 -21.333 -6.33301 -40.833 -19 -58.5s-34.334 -33.5 -65.001 -47.5l-163 -67l-21 43v71
c0 8.66699 -2 14.5 -6 17.5s-8.66699 4.5 -14 4.5h-36v50h54c12.667 0 22.834 -3.33301 30.501 -10s11.5 -18.667 11.5 -36v-76zM16 388.999c0 -10 3.83398 -20 11.501 -30s18.5 -18.667 32.5 -26c13.333 5.33301 24.666 12.833 33.999 22.5s14 21.5 14 35.5
c0 11.333 -3.83301 22 -11.5 32s-19.167 15 -34.5 15c-16.667 0 -28.5 -5.33301 -35.5 -16s-10.5 -21.667 -10.5 -33zM0.000976562 15.999c-4.66699 -4 -9.66602 -7.66699 -14.999 -11s-11.333 -5 -18 -5h-32c-8.66699 0 -18.334 1.33301 -29.001 4
s-20.667 8.16699 -30 16.5s-17.166 20.333 -23.499 36s-9.5 36.5 -9.5 62.5v61h51v-72c0 -22 5 -36.833 15 -44.5s22.667 -11.5 38 -11.5h27v128h52v-128h27c14.667 0 27.167 3.83301 37.5 11.5s15.5 22.5 15.5 44.5v72h51v-61c0 -26 -3.33301 -46.833 -10 -62.5
s-14.834 -27.667 -24.501 -36s-20 -13.833 -31 -16.5s-20.833 -4 -29.5 -4h-29c-6.66699 0 -12.667 1.66699 -18 5s-10.333 7 -15 11z" />
    <glyph glyph-name=".shdd.en" unicode="&#xfc5f;" arabic-form="isolated" 
d="M0 340c-4.66699 -4 -9.66602 -7.66699 -14.999 -11s-11.333 -5 -18 -5h-32c-8.66699 0 -18.334 1.33301 -29.001 4s-20.667 8.16699 -30 16.5s-17.166 20.333 -23.499 36s-9.5 36.5 -9.5 62.5v61h51v-72c0 -22 5 -36.833 15 -44.5s22.667 -11.5 38 -11.5h27v128h52v-128
h27c14.667 0 27.167 3.83301 37.5 11.5s15.5 22.5 15.5 44.5v72h51v-61c0 -26 -3.33301 -46.833 -10 -62.5s-14.834 -27.667 -24.501 -36s-20 -13.833 -31 -16.5s-20.833 -4 -29.5 -4h-29c-6.66699 0 -12.667 1.66699 -18 5s-10.333 7 -15 11zM107.001 145l20 -48l-234 -97
l-20 48zM107.001 266l20 -48l-234 -97l-20 48z" />
    <glyph glyph-name=".shdd.a" unicode="&#xfc60;" arabic-form="isolated" 
d="M107 367l20 -48l-234 -97l-20 48zM0 16c-4.66699 -4 -9.66602 -7.66699 -14.999 -11s-11.333 -5 -18 -5h-32c-8.66699 -0 -18.334 1.33301 -29.001 4s-20.667 8.16699 -30 16.5s-17.166 20.333 -23.499 36s-9.5 36.5 -9.5 62.5v61h51v-72c0 -22 5 -36.833 15 -44.5
s22.667 -11.5 38 -11.5h27v128h52v-128h27c14.667 0 27.167 3.83301 37.5 11.5s15.5 22.5 15.5 44.5v72h51v-61c0 -26 -3.33301 -46.833 -10 -62.5s-14.834 -27.667 -24.501 -36s-20 -13.833 -31 -16.5s-20.833 -4 -29.5 -4h-29c-6.66699 0 -12.667 1.66699 -18 5
s-10.333 7 -15 11z" />
    <glyph glyph-name=".shdd.o" unicode="&#xfc61;" arabic-form="isolated" 
d="M-135 272l123.001 48.998c-14.667 8.66699 -25.5 19.834 -32.5 33.501s-10.5 28.167 -10.5 43.5c0 12.667 2.5 24.834 7.5 36.501s11.667 21.667 20 30s18.166 15 29.499 20s23.333 7.5 36 7.5c28 0 50.667 -8.83301 68 -26.5s26 -40.5 26 -68.5
c0 -21.333 -6.33301 -40.833 -19 -58.5s-34.667 -33.5 -66 -47.5l-163 -67zM-7.99902 393.998c0 -10 4 -20 12 -30s18.667 -18.667 32 -26c13.333 5.33301 24.833 12.833 34.5 22.5s14.5 21.5 14.5 35.5c0 11.333 -4 22 -12 32s-19.667 15 -35 15
s-26.833 -5.33301 -34.5 -16s-11.5 -21.667 -11.5 -33zM0.000976562 15.998c-4.66699 -4 -9.66602 -7.66699 -14.999 -11s-11.333 -5 -18 -5h-32c-8.66699 0 -18.334 1.33301 -29.001 4s-20.667 8.16699 -30 16.5s-17.166 20.333 -23.499 36s-9.5 36.5 -9.5 62.5v61h51v-72
c0 -22 5 -36.833 15 -44.5s22.667 -11.5 38 -11.5h27v128h52v-128h27c14.667 0 27.167 3.83301 37.5 11.5s15.5 22.5 15.5 44.5v72h51v-61c0 -26 -3.33301 -46.833 -10 -62.5s-14.834 -27.667 -24.501 -36s-20 -13.833 -31 -16.5s-20.833 -4 -29.5 -4h-29
c-6.66699 0 -12.667 1.66699 -18 5s-10.333 7 -15 11z" />
    <glyph glyph-name=".shdd.e" unicode="&#xfc62;" arabic-form="isolated" 
d="M0 207c-4.66699 -4 -9.66602 -7.66699 -14.999 -11s-11.333 -5 -18 -5h-32c-8.66699 0 -18.334 1.33301 -29.001 4s-20.667 8.16699 -30 16.5s-17.166 20.333 -23.499 36s-9.5 36.5 -9.5 62.5v61h51v-72c0 -22 5 -36.833 15 -44.5s22.667 -11.5 38 -11.5h27v128h52v-128
h27c14.667 0 27.167 3.83301 37.5 11.5s15.5 22.5 15.5 44.5v72h51v-61c0 -26 -3.33301 -46.833 -10 -62.5s-14.834 -27.667 -24.501 -36s-20 -13.833 -31 -16.5s-20.833 -4 -29.5 -4h-29c-6.66699 0 -12.667 1.66699 -18 5s-10.333 7 -15 11zM107.001 145l20 -48l-234 -97
l-20 48z" />
    <glyph glyph-name=".shdd.aa" unicode="&#xfc63;" arabic-form="isolated" 
d="M1 16c-4.66699 -4 -9.66602 -7.66699 -14.999 -11s-11.333 -5 -18 -5h-32c-8.66699 -0 -18.334 1.33301 -29.001 4s-20.667 8.16699 -30 16.5s-17.166 20.333 -23.499 36s-9.5 36.5 -9.5 62.5v61h51v-72c0 -22 5 -36.833 15 -44.5s22.667 -11.5 38 -11.5h27v128h52v-128
h27c14.667 0 27.167 3.83301 37.5 11.5s15.5 22.5 15.5 44.5v72h51v-61c0 -26 -3.33301 -46.833 -10 -62.5s-14.834 -27.667 -24.501 -36s-20 -13.833 -31 -16.5s-20.833 -4 -29.5 -4h-29c-6.66699 0 -12.667 1.66699 -18 5s-10.333 7 -15 11zM-25.999 420h52v-174h-52v174z
" />
    <glyph glyph-name="rial" unicode="&#xfdfc;" horiz-adv-x="1378" arabic-form="isolated" 
d="M1059 -154l15.998 -0.000976562c30 0 56 4.66699 78 14s40 22 54 38s24.333 34.167 31 54.5s10 41.5 10 63.5v273h81v-273c0 -37.333 -6.16699 -71.666 -18.5 -102.999s-29.166 -58.5 -50.499 -81.5s-46.666 -41 -75.999 -54s-61 -19.5 -95 -19.5h-24zM976.998 87.999
c24.667 0 43.667 6.33398 57 19.001s20 30.667 20 54v128h82v-133c0 -50.667 -13.5 -89.334 -40.5 -116.001s-64.5 -40 -112.5 -40h-97c-8.66699 0 -14.5 3.5 -17.5 10.5s-4.5 17.5 -4.5 31.5c0 16 1.5 27.667 4.5 35s8.83301 11 17.5 11h91zM939.998 -239h-88v84h88v-84z
M803.998 -239h-89v84h89v-84zM849.998 0c-18 0 -35.332 2.49902 -51.999 7.49902s-31.334 13.5 -44.001 25.5s-22.667 27.833 -30 47.5s-11 44.167 -11 73.5v456h83v-438c0 -25.333 5.5 -45.666 16.5 -60.999s28.167 -23 51.5 -23h21c8.66699 0 14.5 -3.5 17.5 -10.5
s4.5 -17.5 4.5 -31.5c0 -16 -1.5 -27.667 -4.5 -35s-8.83301 -11 -17.5 -11h-35zM593.999 21.999c0 -36.667 -5.83496 -70.999 -17.502 -102.999s-28.167 -60 -49.5 -84s-47.333 -42.833 -78 -56.5s-65 -20.5 -103 -20.5h-61c-37.333 0 -70.666 6 -99.999 18
s-54.166 29.167 -74.499 51.5s-35.833 49.333 -46.5 81s-16 67.5 -16 107.5v177h83v-173c0 -52.667 12.833 -94.834 38.5 -126.501s68.167 -47.5 127.5 -47.5h44c30 0 55.833 4.66699 77.5 14s39.5 22 53.5 38s24.333 34.5 31 55.5s10 43.167 10 66.5v590h81v-588z" />
    <glyph glyph-name="alef.aa.fina" unicode="&#x622;" horiz-adv-x="231" arabic-form="final" 
d="M196 0c-18 0 -35.332 2.49902 -51.999 7.49902s-31.334 13.5 -44.001 25.5s-22.667 27.833 -30 47.5s-11 44.167 -11 73.5v303h83v-285c0 -25.333 5.5 -45.666 16.5 -60.999s28.167 -23 51.5 -23h21c8.66699 0 14.5 -3.5 17.5 -10.5s4.5 -17.5 4.5 -31.5
c0 -16 -1.5 -27.667 -4.5 -35s-8.83301 -11 -17.5 -11h-35zM50.001 562.999c-13.333 0 -23.833 -1.16895 -31.5 -3.50195s-14.167 -10.166 -19.5 -23.499l-21 -45l-53 24l29 62c5.33301 12.667 10.833 23 16.5 31s12 14.333 19 19s15 7.83398 24 9.50098
s19.833 2.5 32.5 2.5h193l-4 -76h-185z" />
    <glyph glyph-name="alef.thmz.fina" unicode="&#x623;" horiz-adv-x="231" arabic-form="final" 
d="M196 0c-18 0 -35.332 2.49902 -51.999 7.49902s-31.334 13.5 -44.001 25.5s-22.667 27.833 -30 47.5s-11 44.167 -11 73.5v303h83v-285c0 -25.333 5.5 -45.666 16.5 -60.999s28.167 -23 51.5 -23h21c8.66699 0 14.5 -3.5 17.5 -10.5s4.5 -17.5 4.5 -31.5
c0 -16 -1.5 -27.667 -4.5 -35s-8.83301 -11 -17.5 -11h-35zM203.001 596.999l-186 -94.001l-24 47l66 30c-18.667 7.33301 -32 18.666 -40 33.999s-12 31 -12 47c0 28 8.83301 50.5 26.5 67.5s40.5 25.5 68.5 25.5h47l-6 -51h-32c-17.333 0 -30.333 -4.66699 -39 -14
s-13 -20.666 -13 -33.999s4.66699 -24.166 14 -32.499s20.333 -12.5 33 -12.5c8 0 18.5 3.16699 31.5 9.5l45.5 22.5z" />
    <glyph glyph-name="vav.thmz.fina" unicode="&#x624;" horiz-adv-x="482" arabic-form="final" 
d="M145 -154c27.333 0 51.335 4.00195 72.002 12.002s37.834 19 51.501 33s24.167 30.333 31.5 49s11.666 38.667 12.999 60h-85c-34.667 0 -63 3.66699 -85 11s-39.333 18 -52 32s-21.5 31.167 -26.5 51.5s-7.5 43.166 -7.5 68.499s3.66699 49.5 11 72.5
s18.166 43.167 32.499 60.5s32 31.166 53 41.499s45.5 15.5 73.5 15.5c22.667 0 44 -3.66699 64 -11s37.667 -18.833 53 -34.5s27.5 -36.167 36.5 -61.5s13.5 -56 13.5 -92v-66h88c14.667 0 22 -14 22 -42c0 -30.667 -7.33301 -46 -22 -46h-89
c-2 -32.667 -8.83301 -63.667 -20.5 -93s-27.834 -55 -48.501 -77s-45.667 -39.5 -75 -52.5s-62 -19.5 -98 -19.5h-104l-5 88h103zM136.002 168.002c0 -14 1.49902 -26.168 4.49902 -36.501s8.16699 -18.666 15.5 -24.999s17.5 -11 30.5 -14s29.167 -4.5 48.5 -4.5h80v62
c0 42 -8.16699 72.167 -24.5 90.5s-39.166 27.5 -68.499 27.5c-28 0 -49.333 -9 -64 -27s-22 -42.333 -22 -73zM317.001 506.001l-186 -94.001l-24 47l66 30c-18.667 7.33301 -32 18.666 -40 33.999s-12 31 -12 47c0 28 8.83301 50.5 26.5 67.5s40.5 25.5 68.5 25.5h47
l-6 -51h-32c-17.333 0 -30.333 -4.66699 -39 -14s-13 -20.666 -13 -33.999s4.66699 -24.166 14 -32.499s20.333 -12.5 33 -12.5c8 0 18.5 3.16699 31.5 9.5l45.5 22.5z" />
    <glyph glyph-name="alef.bhmz.fina" unicode="&#x625;" horiz-adv-x="231" arabic-form="final" 
d="M196 0c-18 0 -35.332 2.49902 -51.999 7.49902s-31.334 13.5 -44.001 25.5s-22.667 27.833 -30 47.5s-11 44.167 -11 73.5v456h83v-438c0 -25.333 5.5 -45.666 16.5 -60.999s28.167 -23 51.5 -23h21c8.66699 0 14.5 -3.5 17.5 -10.5s4.5 -17.5 4.5 -31.5
c0 -16 -1.5 -27.667 -4.5 -35s-8.83301 -11 -17.5 -11h-35zM246.001 -261.001l-186 -94.001l-24 47l66 30c-18.667 7.33301 -32 18.666 -40 33.999s-12 31 -12 47c0 28 8.83301 50.5 26.5 67.5s40.5 25.5 68.5 25.5h47l-6 -51h-32c-17.333 0 -30.333 -4.66699 -39 -14
s-13 -20.666 -13 -33.999s4.66699 -24.166 14 -32.499s20.333 -12.5 33 -12.5c8 0 18.5 3.16699 31.5 9.5l45.5 22.5z" />
    <glyph glyph-name="ye.thmz.fina" unicode="&#x626;" horiz-adv-x="694" arabic-form="final" 
d="M376 -154c32 0 58.8311 2.6709 80.498 8.00391s39.167 12.5 52.5 21.5s22.833 19.667 28.5 32s8.5 25.166 8.5 38.499c0 15.333 -3.83301 28.166 -11.5 38.499s-21.167 15.5 -40.5 15.5h-156l5 88h351c8.66699 0 14.5 -3.5 17.5 -10.5s4.5 -17.5 4.5 -31.5
c0 -16 -1.5 -27.667 -4.5 -35s-8.83301 -11 -17.5 -11h-91c14.667 -12 22 -33.333 22 -64c0 -18 -4 -37.333 -12 -58s-21.333 -39.834 -40 -57.501s-43 -32.5 -73 -44.5s-67.333 -18 -112 -18h-103c-37.333 0 -70.666 6 -99.999 18s-54.166 29.167 -74.499 51.5
s-35.833 49.333 -46.5 81s-16 67.5 -16 107.5v177h83v-173c0 -52.667 12.833 -94.834 38.5 -126.501s68.167 -47.5 127.5 -47.5h79zM439.998 271.004l-186 -94.001l-24 47l66 30c-18.667 7.33301 -32 18.666 -40 33.999s-12 31 -12 47c0 28 8.83301 50.5 26.5 67.5
s40.5 25.5 68.5 25.5h47l-6 -51h-32c-17.333 0 -30.333 -4.66699 -39 -14s-13 -20.666 -13 -33.999s4.66699 -24.166 14 -32.499s20.333 -12.5 33 -12.5c8 0 18.5 3.16699 31.5 9.5l45.5 22.5z" />
    <glyph glyph-name="ye.thmz.init" unicode="&#x626;" horiz-adv-x="299" arabic-form="initial" 
d="M91 88c24.667 0 43.667 6.33398 57 19.001s20 30.667 20 54v128h82v-133c0 -50.667 -13.5 -89.334 -40.5 -116.001s-64.5 -40 -112.5 -40h-97c-8.66699 0 -14.5 3.5 -17.5 10.5s-4.5 17.5 -4.5 31.5c0 16 1.5 27.667 4.5 35s8.83301 11 17.5 11h91zM269 443.001
l-186 -94.001l-24 47l66 30c-18.667 7.33301 -32 18.666 -40 33.999s-12 31 -12 47c0 28 8.83301 50.5 26.5 67.5s40.5 25.5 68.5 25.5h47l-6 -51h-32c-17.333 0 -30.333 -4.66699 -39 -14s-13 -20.666 -13 -33.999s4.66699 -24.166 14 -32.499s20.333 -12.5 33 -12.5
c8 0 18.5 3.16699 31.5 9.5l45.5 22.5z" />
    <glyph glyph-name="ye.thmz.medi" unicode="&#x626;" horiz-adv-x="340" arabic-form="medial" 
d="M74 88c51.333 0 77 24.333 77 73v128h81v-128c0 -13.333 2.33301 -24.666 7 -33.999s10.667 -16.833 18 -22.5s15.833 -9.83398 25.5 -12.501s19.5 -4 29.5 -4h28c14.667 0 22 -14 22 -42c0 -30.667 -7.33301 -46 -22 -46h-31c-24 -0 -46.5 4.33301 -67.5 13
s-38.5 25.667 -52.5 51c-15.333 -25.333 -32.833 -42.333 -52.5 -51s-40.5 -13 -62.5 -13h-74c-8.66699 0 -14.5 3.5 -17.5 10.5s-4.5 17.5 -4.5 31.5c0 16 1.5 27.667 4.5 35s8.83301 11 17.5 11h74zM271 443l-186 -94.001l-24 47l66 30
c-18.667 7.33301 -32 18.666 -40 33.999s-12 31 -12 47c0 28 8.83301 50.5 26.5 67.5s40.5 25.5 68.5 25.5h47l-6 -51h-32c-17.333 0 -30.333 -4.66699 -39 -14s-13 -20.666 -13 -33.999s4.66699 -24.166 14 -32.499s20.333 -12.5 33 -12.5c8 0 18.5 3.16699 31.5 9.5
l45.5 22.5z" />
    <glyph glyph-name="alef.fina" unicode="&#x627;" horiz-adv-x="231" arabic-form="final" 
d="M196 0c-18 0 -35.332 2.49902 -51.999 7.49902s-31.334 13.5 -44.001 25.5s-22.667 27.833 -30 47.5s-11 44.167 -11 73.5v456h83v-438c0 -25.333 5.5 -45.666 16.5 -60.999s28.167 -23 51.5 -23h21c8.66699 0 14.5 -3.5 17.5 -10.5s4.5 -17.5 4.5 -31.5
c0 -16 -1.5 -27.667 -4.5 -35s-8.83301 -11 -17.5 -11h-35z" />
    <glyph glyph-name="be.fina" unicode="&#x628;" horiz-adv-x="806" arabic-form="final" 
d="M550 88c51.333 0 77 24.333 77 73v128h81v-128c0 -13.333 2.33301 -24.666 7 -33.999s10.667 -16.833 18 -22.5s16 -9.83398 26 -12.501s20 -4 30 -4h17c8.66699 0 14.5 -3.5 17.5 -10.5s4.5 -17.5 4.5 -31.5c0 -16 -1.5 -27.667 -4.5 -35s-8.83301 -11 -17.5 -11h-21
c-24 -0 -46.5 4.33301 -67.5 13s-38.5 25.667 -52.5 51c-15.333 -25.333 -32.833 -42.333 -52.5 -51s-40.5 -13 -62.5 -13h-348c-27.333 0 -50.833 4.16699 -70.5 12.5s-35.667 19.5 -48 33.5s-21.333 30.333 -27 49s-8.5 38.334 -8.5 59.001v139h83v-118
c0 -26.667 6.16699 -47.834 18.5 -63.501s35.833 -23.5 70.5 -23.5h330zM425 -202h-96v87h96v-87z" />
    <glyph glyph-name="be.init" unicode="&#x628;" horiz-adv-x="299" arabic-form="initial" 
d="M91 88c24.667 0 43.667 6.33398 57 19.001s20 30.667 20 54v128h82v-133c0 -50.667 -13.5 -89.334 -40.5 -116.001s-64.5 -40 -112.5 -40h-97c-8.66699 0 -14.5 3.5 -17.5 10.5s-4.5 17.5 -4.5 31.5c0 16 1.5 27.667 4.5 35s8.83301 11 17.5 11h91zM136 -201.999h-96v87
h96v-87z" />
    <glyph glyph-name="be.medi" unicode="&#x628;" horiz-adv-x="340" arabic-form="medial" 
d="M74 88c51.333 0 77 24.333 77 73v128h81v-128c0 -13.333 2.33301 -24.666 7 -33.999s10.667 -16.833 18 -22.5s15.833 -9.83398 25.5 -12.501s19.5 -4 29.5 -4h28c14.667 0 22 -14 22 -42c0 -30.667 -7.33301 -46 -22 -46h-31c-24 -0 -46.5 4.33301 -67.5 13
s-38.5 25.667 -52.5 51c-15.333 -25.333 -32.833 -42.333 -52.5 -51s-40.5 -13 -62.5 -13h-74c-8.66699 0 -14.5 3.5 -17.5 10.5s-4.5 17.5 -4.5 31.5c0 16 1.5 27.667 4.5 35s8.83301 11 17.5 11h74zM215 -202h-96v87h96v-87z" />
    <glyph glyph-name="te.marbuta.fina" unicode="&#x629;" horiz-adv-x="480" arabic-form="final" 
d="M213 123c31.333 0 55.5 6.33301 72.5 19s25.5 28.667 25.5 48v125h-89c-32 0 -55.667 -10 -71 -30s-23 -46 -23 -78s7 -54 21 -66s35.333 -18 64 -18zM391 172c0 -25.333 5 -45.6689 15 -61.002s27.667 -23 53 -23h21c14.667 0 22 -14 22 -42
c0 -30.667 -7.33301 -46 -22 -46h-21c-32 0 -58.667 6.33301 -80 19s-37 35 -47 67c-8 -10 -17.667 -18.167 -29 -24.5s-23 -11.333 -35 -15s-24.167 -6.16699 -36.5 -7.5s-23.833 -2 -34.5 -2c-48 0 -84.833 13.333 -110.5 40s-38.5 67 -38.5 121
c0 24.667 3.5 48.834 10.5 72.501s17.5 44.834 31.5 63.501s31.5 33.667 52.5 45s45.833 17 74.5 17h94v69h80v-293zM377 546.997h-91v84h91v-84zM243 546.997h-91v84h91v-84z" />
    <glyph glyph-name="te.fina" unicode="&#x62a;" horiz-adv-x="806" arabic-form="final" 
d="M550 88c51.333 0 77 24.333 77 73v128h81v-128c0 -13.333 2.33301 -24.666 7 -33.999s10.667 -16.833 18 -22.5s16 -9.83398 26 -12.501s20 -4 30 -4h17c8.66699 0 14.5 -3.5 17.5 -10.5s4.5 -17.5 4.5 -31.5c0 -16 -1.5 -27.667 -4.5 -35s-8.83301 -11 -17.5 -11h-21
c-24 -0 -46.5 4.33301 -67.5 13s-38.5 25.667 -52.5 51c-15.333 -25.333 -32.833 -42.333 -52.5 -51s-40.5 -13 -62.5 -13h-348c-27.333 0 -50.833 4.16699 -70.5 12.5s-35.667 19.5 -48 33.5s-21.333 30.333 -27 49s-8.5 38.334 -8.5 59.001v139h83v-118
c0 -26.667 6.16699 -47.834 18.5 -63.501s35.833 -23.5 70.5 -23.5h330zM490 374h-91v84h91v-84zM356 374h-91v84h91v-84z" />
    <glyph glyph-name="te.init" unicode="&#x62a;" horiz-adv-x="299" arabic-form="initial" 
d="M91 88c24.667 0 43.667 6.33398 57 19.001s20 30.667 20 54v128h82v-133c0 -50.667 -13.5 -89.334 -40.5 -116.001s-64.5 -40 -112.5 -40h-97c-8.66699 0 -14.5 3.5 -17.5 10.5s-4.5 17.5 -4.5 31.5c0 16 1.5 27.667 4.5 35s8.83301 11 17.5 11h91zM257 411.001h-91v84
h91v-84zM123 411.001h-91v84h91v-84z" />
    <glyph glyph-name="te.medi" unicode="&#x62a;" horiz-adv-x="340" arabic-form="medial" 
d="M74 88c51.333 0 77 24.333 77 73v128h81v-128c0 -13.333 2.33301 -24.666 7 -33.999s10.667 -16.833 18 -22.5s15.833 -9.83398 25.5 -12.501s19.5 -4 29.5 -4h28c14.667 0 22 -14 22 -42c0 -30.667 -7.33301 -46 -22 -46h-31c-24 -0 -46.5 4.33301 -67.5 13
s-38.5 25.667 -52.5 51c-15.333 -25.333 -32.833 -42.333 -52.5 -51s-40.5 -13 -62.5 -13h-74c-8.66699 0 -14.5 3.5 -17.5 10.5s-4.5 17.5 -4.5 31.5c0 16 1.5 27.667 4.5 35s8.83301 11 17.5 11h74zM292 411h-91v84h91v-84zM158 411h-91v84h91v-84z" />
    <glyph glyph-name="the.fina" unicode="&#x62b;" horiz-adv-x="806" arabic-form="final" 
d="M550 88c51.333 0 77 24.333 77 73v128h81v-128c0 -13.333 2.33301 -24.666 7 -33.999s10.667 -16.833 18 -22.5s16 -9.83398 26 -12.501s20 -4 30 -4h17c8.66699 0 14.5 -3.5 17.5 -10.5s4.5 -17.5 4.5 -31.5c0 -16 -1.5 -27.667 -4.5 -35s-8.83301 -11 -17.5 -11h-21
c-24 -0 -46.5 4.33301 -67.5 13s-38.5 25.667 -52.5 51c-15.333 -25.333 -32.833 -42.333 -52.5 -51s-40.5 -13 -62.5 -13h-348c-27.333 0 -50.833 4.16699 -70.5 12.5s-35.667 19.5 -48 33.5s-21.333 30.333 -27 49s-8.5 38.334 -8.5 59.001v139h83v-118
c0 -26.667 6.16699 -47.834 18.5 -63.501s35.833 -23.5 70.5 -23.5h330zM423 503h-91v83h91v-83zM490 374h-91v84h91v-84zM356 374h-91v84h91v-84z" />
    <glyph glyph-name="the.init" unicode="&#x62b;" horiz-adv-x="299" arabic-form="initial" 
d="M91 88c24.667 0 43.667 6.33398 57 19.001s20 30.667 20 54v128h82v-133c0 -50.667 -13.5 -89.334 -40.5 -116.001s-64.5 -40 -112.5 -40h-97c-8.66699 0 -14.5 3.5 -17.5 10.5s-4.5 17.5 -4.5 31.5c0 16 1.5 27.667 4.5 35s8.83301 11 17.5 11h91zM190 540.001h-91v83
h91v-83zM257 411.001h-91v84h91v-84zM123 411.001h-91v84h91v-84z" />
    <glyph glyph-name="the.medi" unicode="&#x62b;" horiz-adv-x="340" arabic-form="medial" 
d="M74 88c51.333 0 77 24.333 77 73v128h81v-128c0 -13.333 2.33301 -24.666 7 -33.999s10.667 -16.833 18 -22.5s15.833 -9.83398 25.5 -12.501s19.5 -4 29.5 -4h28c14.667 0 22 -14 22 -42c0 -30.667 -7.33301 -46 -22 -46h-31c-24 -0 -46.5 4.33301 -67.5 13
s-38.5 25.667 -52.5 51c-15.333 -25.333 -32.833 -42.333 -52.5 -51s-40.5 -13 -62.5 -13h-74c-8.66699 0 -14.5 3.5 -17.5 10.5s-4.5 17.5 -4.5 31.5c0 16 1.5 27.667 4.5 35s8.83301 11 17.5 11h74zM225 540h-91v83h91v-83zM292 411h-91v84h91v-84zM158 411h-91v84h91v-84
z" />
    <glyph glyph-name="jim.fina" unicode="&#x62c;" horiz-adv-x="566" arabic-form="final" 
d="M397 222c-4.66699 11.333 -9.5 21.5 -14.5 30.5s-11.167 16.5 -18.5 22.5s-16.666 10.5 -27.999 13.5s-25.333 4.5 -42 4.5h-209l5 88h216c18 0 35.833 -2 53.5 -6s34.5 -12.833 50.5 -26.5s30.833 -33.334 44.5 -59.001s25.5 -60.5 35.5 -104.5l-64 -38
c11.333 -22.667 23.666 -38.167 36.999 -46.5s30.666 -12.5 51.999 -12.5h51c8.66699 0 14.5 -3.5 17.5 -10.5s4.5 -17.5 4.5 -31.5c0 -16 -1.5 -27.667 -4.5 -35s-8.83301 -11 -17.5 -11h-57c-22 0 -40.667 2.83301 -56 8.5s-28.333 13.5 -39 23.5s-19.667 22 -27 36
s-14 29.333 -20 46l-76 -45c-31.333 -18 -57.666 -35.667 -78.999 -53s-38.5 -34.5 -51.5 -51.5s-22.167 -34 -27.5 -51s-8 -34.5 -8 -52.5c0 -50 13.833 -88.833 41.5 -116.5s72.834 -41.5 135.501 -41.5h185l-5 -88h-182c-46 0 -85.333 6.33301 -118 19
s-59.167 29.667 -79.5 51s-35.333 46.5 -45 75.5s-14.5 59.833 -14.5 92.5c0 28.667 3.5 55.334 10.5 80.001s18.667 48.5 35 71.5s37.666 45.333 63.999 67s58.833 43.5 97.5 65.5zM372 -170h-96v87h96v-87z" />
    <glyph glyph-name="jim.init" unicode="&#x62c;" horiz-adv-x="547" arabic-form="initial" 
d="M288 57c-17.333 -10.667 -34.335 -19.668 -51.002 -27.001s-34.5 -13.166 -53.5 -17.499s-39.833 -7.5 -62.5 -9.5s-49 -3 -79 -3h-42c-8.66699 0 -14.5 3.5 -17.5 10.5s-4.5 17.5 -4.5 31.5c0 16 1.5 27.667 4.5 35s8.83301 11 17.5 11h45
c25.333 0 47.833 0.666992 67.5 2s38 3.66602 55 6.99902s32.833 7.83301 47.5 13.5s29.667 12.834 45 21.501l149 86c-5.33301 12 -10.666 22.5 -15.999 31.5s-11.833 16.833 -19.5 23.5s-17.167 11.667 -28.5 15s-25.666 5 -42.999 5h-218l5 88h226
c18 0 36 -2.33301 54 -7s35.167 -14 51.5 -28s31.5 -34 45.5 -60s26 -60.333 36 -103zM292.998 -202.001h-96v87h96v-87z" />
    <glyph glyph-name="jim.medi" unicode="&#x62c;" horiz-adv-x="585" arabic-form="medial" 
d="M436 144c10.667 -21.333 22.665 -36.001 35.998 -44.001s30.666 -12 51.999 -12h61c8.66699 0 14.5 -3.5 17.5 -10.5s4.5 -17.5 4.5 -31.5c0 -16 -1.5 -27.667 -4.5 -35s-8.83301 -11 -17.5 -11h-67c-22 0 -40.667 2.83301 -56 8.5s-28.333 13.334 -39 23.001
s-19.667 21.167 -27 34.5s-13.666 28 -18.999 44l-89 -53c-17.333 -10 -34.333 -18.667 -51 -26s-34.5 -13.333 -53.5 -18s-39.833 -8 -62.5 -10s-49 -3 -79 -3h-42c-8.66699 0 -14.5 3.5 -17.5 10.5s-4.5 17.5 -4.5 31.5c0 16 1.5 27.667 4.5 35s8.83301 11 17.5 11h45
c25.333 0 47.833 0.666992 67.5 2s38 3.66602 55 6.99902s32.833 7.83301 47.5 13.5s29.667 12.834 45 21.501l149 86c-5.33301 12 -10.666 22.5 -15.999 31.5s-11.833 16.833 -19.5 23.5s-17.167 11.667 -28.5 15s-25.666 5 -42.999 5h-218l5 88h226
c18 0 36 -2.33301 54 -7s35.167 -14 51.5 -28s31.5 -34 45.5 -60s26 -60.333 36 -103zM292.998 -202.001h-96v87h96v-87z" />
    <glyph glyph-name="him.fina" unicode="&#x62d;" horiz-adv-x="566" arabic-form="final" 
d="M397 222c-4.66699 11.333 -9.5 21.5 -14.5 30.5s-11.167 16.5 -18.5 22.5s-16.666 10.5 -27.999 13.5s-25.333 4.5 -42 4.5h-209l5 88h216c18 0 35.833 -2 53.5 -6s34.5 -12.833 50.5 -26.5s30.833 -33.334 44.5 -59.001s25.5 -60.5 35.5 -104.5l-64 -38
c11.333 -22.667 23.666 -38.167 36.999 -46.5s30.666 -12.5 51.999 -12.5h51c8.66699 0 14.5 -3.5 17.5 -10.5s4.5 -17.5 4.5 -31.5c0 -16 -1.5 -27.667 -4.5 -35s-8.83301 -11 -17.5 -11h-57c-22 0 -40.667 2.83301 -56 8.5s-28.333 13.5 -39 23.5s-19.667 22 -27 36
s-14 29.333 -20 46l-76 -45c-31.333 -18 -57.666 -35.667 -78.999 -53s-38.5 -34.5 -51.5 -51.5s-22.167 -34 -27.5 -51s-8 -34.5 -8 -52.5c0 -50 13.833 -88.833 41.5 -116.5s72.834 -41.5 135.501 -41.5h185l-5 -88h-182c-46 0 -85.333 6.33301 -118 19
s-59.167 29.667 -79.5 51s-35.333 46.5 -45 75.5s-14.5 59.833 -14.5 92.5c0 28.667 3.5 55.334 10.5 80.001s18.667 48.5 35 71.5s37.666 45.333 63.999 67s58.833 43.5 97.5 65.5z" />
    <glyph glyph-name="him.init" unicode="&#x62d;" horiz-adv-x="547" arabic-form="initial" 
d="M288 57c-17.333 -10.667 -34.335 -19.668 -51.002 -27.001s-34.5 -13.166 -53.5 -17.499s-39.833 -7.5 -62.5 -9.5s-49 -3 -79 -3h-42c-8.66699 0 -14.5 3.5 -17.5 10.5s-4.5 17.5 -4.5 31.5c0 16 1.5 27.667 4.5 35s8.83301 11 17.5 11h45
c25.333 0 47.833 0.666992 67.5 2s38 3.66602 55 6.99902s32.833 7.83301 47.5 13.5s29.667 12.834 45 21.501l149 86c-5.33301 12 -10.666 22.5 -15.999 31.5s-11.833 16.833 -19.5 23.5s-17.167 11.667 -28.5 15s-25.666 5 -42.999 5h-218l5 88h226
c18 0 36 -2.33301 54 -7s35.167 -14 51.5 -28s31.5 -34 45.5 -60s26 -60.333 36 -103z" />
    <glyph glyph-name="him.medi" unicode="&#x62d;" horiz-adv-x="585" arabic-form="medial" 
d="M436 144c10.667 -21.333 22.665 -36.001 35.998 -44.001s30.666 -12 51.999 -12h61c8.66699 0 14.5 -3.5 17.5 -10.5s4.5 -17.5 4.5 -31.5c0 -16 -1.5 -27.667 -4.5 -35s-8.83301 -11 -17.5 -11h-67c-22 0 -40.667 2.83301 -56 8.5s-28.333 13.334 -39 23.001
s-19.667 21.167 -27 34.5s-13.666 28 -18.999 44l-89 -53c-17.333 -10 -34.333 -18.667 -51 -26s-34.5 -13.333 -53.5 -18s-39.833 -8 -62.5 -10s-49 -3 -79 -3h-42c-8.66699 0 -14.5 3.5 -17.5 10.5s-4.5 17.5 -4.5 31.5c0 16 1.5 27.667 4.5 35s8.83301 11 17.5 11h45
c25.333 0 47.833 0.666992 67.5 2s38 3.66602 55 6.99902s32.833 7.83301 47.5 13.5s29.667 12.834 45 21.501l149 86c-5.33301 12 -10.666 22.5 -15.999 31.5s-11.833 16.833 -19.5 23.5s-17.167 11.667 -28.5 15s-25.666 5 -42.999 5h-218l5 88h226
c18 0 36 -2.33301 54 -7s35.167 -14 51.5 -28s31.5 -34 45.5 -60s26 -60.333 36 -103z" />
    <glyph glyph-name="khe.fina" unicode="&#x62e;" horiz-adv-x="566" arabic-form="final" 
d="M397 222c-4.66699 11.333 -9.5 21.5 -14.5 30.5s-11.167 16.5 -18.5 22.5s-16.666 10.5 -27.999 13.5s-25.333 4.5 -42 4.5h-209l5 88h216c18 0 35.833 -2 53.5 -6s34.5 -12.833 50.5 -26.5s30.833 -33.334 44.5 -59.001s25.5 -60.5 35.5 -104.5l-64 -38
c11.333 -22.667 23.666 -38.167 36.999 -46.5s30.666 -12.5 51.999 -12.5h51c8.66699 0 14.5 -3.5 17.5 -10.5s4.5 -17.5 4.5 -31.5c0 -16 -1.5 -27.667 -4.5 -35s-8.83301 -11 -17.5 -11h-57c-22 0 -40.667 2.83301 -56 8.5s-28.333 13.5 -39 23.5s-19.667 22 -27 36
s-14 29.333 -20 46l-76 -45c-31.333 -18 -57.666 -35.667 -78.999 -53s-38.5 -34.5 -51.5 -51.5s-22.167 -34 -27.5 -51s-8 -34.5 -8 -52.5c0 -50 13.833 -88.833 41.5 -116.5s72.834 -41.5 135.501 -41.5h185l-5 -88h-182c-46 0 -85.333 6.33301 -118 19
s-59.167 29.667 -79.5 51s-35.333 46.5 -45 75.5s-14.5 59.833 -14.5 92.5c0 28.667 3.5 55.334 10.5 80.001s18.667 48.5 35 71.5s37.666 45.333 63.999 67s58.833 43.5 97.5 65.5zM301 490h-96v86h96v-86z" />
    <glyph glyph-name="khe.init" unicode="&#x62e;" horiz-adv-x="547" arabic-form="initial" 
d="M288 57c-17.333 -10.667 -34.335 -19.668 -51.002 -27.001s-34.5 -13.166 -53.5 -17.499s-39.833 -7.5 -62.5 -9.5s-49 -3 -79 -3h-42c-8.66699 0 -14.5 3.5 -17.5 10.5s-4.5 17.5 -4.5 31.5c0 16 1.5 27.667 4.5 35s8.83301 11 17.5 11h45
c25.333 0 47.833 0.666992 67.5 2s38 3.66602 55 6.99902s32.833 7.83301 47.5 13.5s29.667 12.834 45 21.501l149 86c-5.33301 12 -10.666 22.5 -15.999 31.5s-11.833 16.833 -19.5 23.5s-17.167 11.667 -28.5 15s-25.666 5 -42.999 5h-218l5 88h226
c18 0 36 -2.33301 54 -7s35.167 -14 51.5 -28s31.5 -34 45.5 -60s26 -60.333 36 -103zM297.998 489.999h-96v86h96v-86z" />
    <glyph glyph-name="khe.medi" unicode="&#x62e;" horiz-adv-x="585" arabic-form="medial" 
d="M436 144c10.667 -21.333 22.665 -36.001 35.998 -44.001s30.666 -12 51.999 -12h61c8.66699 0 14.5 -3.5 17.5 -10.5s4.5 -17.5 4.5 -31.5c0 -16 -1.5 -27.667 -4.5 -35s-8.83301 -11 -17.5 -11h-67c-22 0 -40.667 2.83301 -56 8.5s-28.333 13.334 -39 23.001
s-19.667 21.167 -27 34.5s-13.666 28 -18.999 44l-89 -53c-17.333 -10 -34.333 -18.667 -51 -26s-34.5 -13.333 -53.5 -18s-39.833 -8 -62.5 -10s-49 -3 -79 -3h-42c-8.66699 0 -14.5 3.5 -17.5 10.5s-4.5 17.5 -4.5 31.5c0 16 1.5 27.667 4.5 35s8.83301 11 17.5 11h45
c25.333 0 47.833 0.666992 67.5 2s38 3.66602 55 6.99902s32.833 7.83301 47.5 13.5s29.667 12.834 45 21.501l149 86c-5.33301 12 -10.666 22.5 -15.999 31.5s-11.833 16.833 -19.5 23.5s-17.167 11.667 -28.5 15s-25.666 5 -42.999 5h-218l5 88h226
c18 0 36 -2.33301 54 -7s35.167 -14 51.5 -28s31.5 -34 45.5 -60s26 -60.333 36 -103zM297.998 489.999h-96v86h96v-86z" />
    <glyph glyph-name="dal.fina" unicode="&#x62f;" horiz-adv-x="510" arabic-form="final" 
d="M249 88c13.333 0 24.5 1.66504 33.5 4.99805s16.333 7.5 22 12.5s9.66699 10.5 12 16.5s3.5 11.667 3.5 17c0 6 -1 13.833 -3 23.5s-6.33301 24.834 -13 45.501s-16.167 48.5 -28.5 83.5l-49.5 136.5l79 32l103 -297c10 -27.333 21.333 -46.666 34 -57.999s31 -17 55 -17
h13c8.66699 0 14.5 -3.5 17.5 -10.5s4.5 -17.5 4.5 -31.5c0 -16 -1.5 -27.667 -4.5 -35s-8.83301 -11 -17.5 -11h-13c-22 0 -43.167 4 -63.5 12s-38.833 25.667 -55.5 53c-13.333 -25.333 -30.5 -42.5 -51.5 -51.5s-44.167 -13.5 -69.5 -13.5h-214l-6 88h212z" />
    <glyph glyph-name="zal.fina" unicode="&#x630;" horiz-adv-x="510" arabic-form="final" 
d="M249 88c13.333 0 24.5 1.66504 33.5 4.99805s16.333 7.5 22 12.5s9.66699 10.5 12 16.5s3.5 11.667 3.5 17c0 6 -1 13.833 -3 23.5s-6.33301 24.834 -13 45.501s-16.167 48.5 -28.5 83.5l-49.5 136.5l79 32l103 -297c10 -27.333 21.333 -46.666 34 -57.999s31 -17 55 -17
h13c8.66699 0 14.5 -3.5 17.5 -10.5s4.5 -17.5 4.5 -31.5c0 -16 -1.5 -27.667 -4.5 -35s-8.83301 -11 -17.5 -11h-13c-22 0 -43.167 4 -63.5 12s-38.833 25.667 -55.5 53c-13.333 -25.333 -30.5 -42.5 -51.5 -51.5s-44.167 -13.5 -69.5 -13.5h-214l-6 88h212zM321 558.998
h-96v86h96v-86z" />
    <glyph glyph-name="re.fina" unicode="&#x631;" horiz-adv-x="254" arabic-form="final" 
d="M162 16c0 -37.333 -6.00293 -71.667 -18.0029 -103s-28.5 -58.5 -49.5 -81.5s-46 -41 -75 -54s-60.5 -19.5 -94.5 -19.5h-60l-6 88h46c32 0 59.167 4.66699 81.5 14s40.833 22 55.5 38s25.334 34.167 32.001 54.5s10 41.5 10 63.5v273h81v-132
c0 -21.333 7.33301 -38.166 22 -50.499s33.334 -18.5 56.001 -18.5h11c8.66699 0 14.5 -3.5 17.5 -10.5s4.5 -17.5 4.5 -31.5c0 -16 -1.5 -27.667 -4.5 -35s-8.83301 -11 -17.5 -11h-11c-15.333 0 -30.166 2.66699 -44.499 8s-26.5 14.666 -36.5 27.999v-20z" />
    <glyph glyph-name="ze.fina" unicode="&#x632;" horiz-adv-x="254" arabic-form="final" 
d="M162 16c0 -37.333 -6.00293 -71.667 -18.0029 -103s-28.5 -58.5 -49.5 -81.5s-46 -41 -75 -54s-60.5 -19.5 -94.5 -19.5h-60l-6 88h46c32 0 59.167 4.66699 81.5 14s40.833 22 55.5 38s25.334 34.167 32.001 54.5s10 41.5 10 63.5v273h81v-132
c0 -21.333 7.33301 -38.166 22 -50.499s33.334 -18.5 56.001 -18.5h11c8.66699 0 14.5 -3.5 17.5 -10.5s4.5 -17.5 4.5 -31.5c0 -16 -1.5 -27.667 -4.5 -35s-8.83301 -11 -17.5 -11h-11c-15.333 0 -30.166 2.66699 -44.499 8s-26.5 14.666 -36.5 27.999v-20z
M166.997 410.999h-96v86h96v-86z" />
    </font>
</defs>
</svg>
